{
  "source": "C:\\Users\\Peter\\Desktop\\stuff\\MIUN\\quantitative_research\\video_compression\\videos\\HEVC_CLASS_B\\Cactus_1920x1080_50.y4m",
  "output": "C:\\Users\\Peter\\Desktop\\stuff\\MIUN\\quantitative_research\\video_compression\\compressed_videos\\HEVC_CLASS_B\\av1\\3\\Cactus_1920x1080_50_av1.mkv",
  "codec": "av1",
  "ok": "Input #0, yuv4mpegpipe, from 'C:\\Users\\Peter\\Desktop\\stuff\\MIUN\\quantitative_research\\video_compression\\videos\\HEVC_CLASS_B\\Cactus_1920x1080_50.y4m':\n  Duration: 00:00:10.00, start: 0.000000, bitrate: 1244162 kb/s\n  Stream #0:0: Video: rawvideo (I420 / 0x30323449), yuv420p(progressive), 1920x1080, 50 fps, 50 tbr, 50 tbn\n[out#0/matroska @ 0000028e06719080] Codec AVOption b:a (set bitrate (in bits/s)) has not been used for any stream. The most likely reason is either wrong type (e.g. a video option with no video streams) or that it is a private option of some decoder which was not actually used for any stream.\nStream mapping:\n  Stream #0:0 -> #0:0 (rawvideo (native) -> av1 (libsvtav1))\nPress [q] to stop, [?] for help\nSvt[info]: -------------------------------------------\nSvt[info]: SVT [version]:\tSVT-AV1 Encoder Lib v3.1.0-19-g6ecfe8ec\nSvt[info]: SVT [build]  :\tGCC 15.2.0\t 64 bit\nSvt[info]: LIB Build date: Aug 17 2025 11:37:13\nSvt[info]: -------------------------------------------\n[libsvtav1 @ 0000028e0671c0c0] Specified chroma sample location center is unsupported on the AV1 bit stream level. Usage of a container that allows passing this information - such as Matroska - is recommended.\nSvt[info]: Level of Parallelism: 5\nSvt[info]: Number of PPCS 93\nSvt[info]: [asm level on system : up to avx2]\nSvt[info]: [asm level selected : up to avx2]\nSvt[info]: -------------------------------------------\nSvt[info]: SVT [config]: main profile\ttier (auto)\tlevel (auto)\nSvt[info]: SVT [config]: width / height / fps numerator / fps denominator \t\t: 1920 / 1080 / 50 / 1\nSvt[info]: SVT [config]: bit-depth / color format \t\t\t\t\t: 8 / YUV420\nSvt[info]: SVT [config]: preset / tune / pred struct \t\t\t\t\t: 4 / PSNR / random access\nSvt[info]: SVT [config]: gop size / mini-gop size / key-frame type \t\t\t: 321 / 16 / key frame\nSvt[info]: SVT [config]: BRC mode / target bitrate (kbps)\t\t\t\t: VBR / 3000 \nSvt[info]: SVT [config]: AQ mode / Variance Boost \t\t\t\t\t: 2 / 0\nSvt[info]: SVT [config]: sharpness / luminance-based QP bias \t\t\t\t: 0 / 0\nSvt[info]: SVT [config]: QP scale compress strength \t\t\t\t\t: 0\nSvt[info]: -------------------------------------------\nOutput #0, matroska, to 'C:\\Users\\Peter\\Desktop\\stuff\\MIUN\\quantitative_research\\video_compression\\compressed_videos\\HEVC_CLASS_B\\av1\\3\\Cactus_1920x1080_50_av1.mkv':\n  Metadata:\n    encoder         : Lavf62.3.100\n  Stream #0:0: Video: av1 (AV01 / 0x31305641), yuv420p(tv, progressive), 1920x1080, q=2-31, 3000 kb/s, 50 fps, 1k tbn\n    Metadata:\n      encoder         : Lavc62.11.100 libsvtav1\n    Side data:\n      cpb: bitrate max/min/avg: 0/0/3000000 buffer size: 3000000 vbv_delay: N/A\nframe=    0 fps=0.0 q=0.0 size=       0KiB time=N/A bitrate=N/A speed=N/A elapsed=0:00:02.70    \nframe=    0 fps=0.0 q=0.0 size=       0KiB time=N/A bitrate=N/A speed=N/A elapsed=0:00:03.27    \nframe=    0 fps=0.0 q=0.0 size=       0KiB time=N/A bitrate=N/A speed=N/A elapsed=0:00:03.83    \nframe=    0 fps=0.0 q=0.0 size=       0KiB time=N/A bitrate=N/A speed=N/A elapsed=0:00:04.44    \nframe=    0 fps=0.0 q=0.0 size=       0KiB time=N/A bitrate=N/A speed=N/A elapsed=0:00:04.98    \nframe=    0 fps=0.0 q=0.0 size=       0KiB time=N/A bitrate=N/A speed=N/A elapsed=0:00:05.62    \nframe=    0 fps=0.0 q=0.0 size=       0KiB time=N/A bitrate=N/A speed=N/A elapsed=0:00:06.18    \nframe=    0 fps=0.0 q=0.0 size=       0KiB time=N/A bitrate=N/A speed=N/A elapsed=0:00:06.77    \nframe=    0 fps=0.0 q=0.0 size=       0KiB time=N/A bitrate=N/A speed=N/A elapsed=0:00:07.29    \nframe=    0 fps=0.0 q=0.0 size=       0KiB time=N/A bitrate=N/A speed=N/A elapsed=0:00:07.82    \nframe=    0 fps=0.0 q=0.0 size=       0KiB time=N/A bitrate=N/A speed=N/A elapsed=0:00:08.35    \nframe=    0 fps=0.0 q=0.0 size=       0KiB time=N/A bitrate=N/A speed=N/A elapsed=0:00:08.91    \nframe=    0 fps=0.0 q=0.0 size=       0KiB time=N/A bitrate=N/A speed=N/A elapsed=0:00:09.45    \nframe=    0 fps=0.0 q=0.0 size=       0KiB time=N/A bitrate=N/A speed=N/A elapsed=0:00:09.96    \nframe=    0 fps=0.0 q=0.0 size=       0KiB time=N/A bitrate=N/A speed=N/A elapsed=0:00:10.51    \nframe=    0 fps=0.0 q=0.0 size=       0KiB time=N/A bitrate=N/A speed=N/A elapsed=0:00:11.02    \nframe=    0 fps=0.0 q=0.0 size=       0KiB time=N/A bitrate=N/A speed=N/A elapsed=0:00:11.54    \nframe=    0 fps=0.0 q=0.0 size=       0KiB time=N/A bitrate=N/A speed=N/A elapsed=0:00:12.08    \nframe=    0 fps=0.0 q=0.0 size=       0KiB time=N/A bitrate=N/A speed=N/A elapsed=0:00:12.61    \nframe=    0 fps=0.0 q=0.0 size=       0KiB time=N/A bitrate=N/A speed=N/A elapsed=0:00:13.16    \nframe=    0 fps=0.0 q=0.0 size=       0KiB time=N/A bitrate=N/A speed=N/A elapsed=0:00:13.71    \nframe=    0 fps=0.0 q=0.0 size=       0KiB time=N/A bitrate=N/A speed=N/A elapsed=0:00:14.23    \nframe=    1 fps=0.1 q=17.0 size=       1KiB time=N/A bitrate=N/A speed=N/A elapsed=0:00:14.78    \nframe=    1 fps=0.1 q=17.0 size=       1KiB time=00:00:00.00 bitrate=N/A speed=   0x elapsed=0:00:15.40    \nframe=    1 fps=0.1 q=17.0 size=       1KiB time=00:00:00.00 bitrate=N/A speed=   0x elapsed=0:00:16.02    \nframe=    1 fps=0.1 q=17.0 size=       1KiB time=00:00:00.00 bitrate=N/A speed=   0x elapsed=0:00:16.54    \nframe=    1 fps=0.1 q=17.0 size=       1KiB time=00:00:00.00 bitrate=N/A speed=   0x elapsed=0:00:17.04    \nframe=    1 fps=0.1 q=17.0 size=       1KiB time=00:00:00.00 bitrate=N/A speed=   0x elapsed=0:00:17.57    \nframe=    1 fps=0.1 q=17.0 size=       1KiB time=00:00:00.00 bitrate=N/A speed=   0x elapsed=0:00:18.10    \nframe=    1 fps=0.1 q=17.0 size=       1KiB time=00:00:00.00 bitrate=N/A speed=   0x elapsed=0:00:18.61    \nframe=    1 fps=0.1 q=17.0 size=       1KiB time=00:00:00.00 bitrate=N/A speed=   0x elapsed=0:00:19.13    \nframe=    1 fps=0.1 q=17.0 size=       1KiB time=00:00:00.00 bitrate=N/A speed=   0x elapsed=0:00:19.64    \nframe=    1 fps=0.0 q=17.0 size=       1KiB time=00:00:00.00 bitrate=N/A speed=   0x elapsed=0:00:20.15    \nframe=    1 fps=0.0 q=17.0 size=       1KiB time=00:00:00.00 bitrate=N/A speed=   0x elapsed=0:00:20.67    \nframe=    1 fps=0.0 q=17.0 size=       1KiB time=00:00:00.00 bitrate=N/A speed=   0x elapsed=0:00:21.19    \nframe=    1 fps=0.0 q=17.0 size=       1KiB time=00:00:00.00 bitrate=N/A speed=   0x elapsed=0:00:21.71    \nframe=    1 fps=0.0 q=17.0 size=       1KiB time=00:00:00.00 bitrate=N/A speed=   0x elapsed=0:00:22.22    \nframe=    1 fps=0.0 q=17.0 size=       1KiB time=00:00:00.00 bitrate=N/A speed=   0x elapsed=0:00:22.73    \nframe=    1 fps=0.0 q=17.0 size=       1KiB time=00:00:00.00 bitrate=N/A speed=   0x elapsed=0:00:23.26    \nframe=    1 fps=0.0 q=17.0 size=       1KiB time=00:00:00.00 bitrate=N/A speed=   0x elapsed=0:00:23.77    \nframe=    1 fps=0.0 q=17.0 size=       1KiB time=00:00:00.00 bitrate=N/A speed=   0x elapsed=0:00:24.28    \nframe=    2 fps=0.1 q=48.0 size=       1KiB time=00:00:00.02 bitrate= 224.8kbits/s speed=0.000806x elapsed=0:00:24.79    \nframe=    3 fps=0.1 q=45.0 size=       1KiB time=00:00:00.04 bitrate= 112.4kbits/s speed=0.00158x elapsed=0:00:25.31    \nframe=    4 fps=0.2 q=48.0 size=       1KiB time=00:00:00.06 bitrate=  74.9kbits/s speed=0.00232x elapsed=0:00:25.83    \nframe=    5 fps=0.2 q=44.0 size=       1KiB time=00:00:00.08 bitrate=  56.2kbits/s speed=0.00304x elapsed=0:00:26.34    \nframe=    6 fps=0.2 q=47.0 size=       1KiB time=00:00:00.10 bitrate=  45.0kbits/s speed=0.00372x elapsed=0:00:26.86    \nframe=    6 fps=0.2 q=47.0 size=       1KiB time=00:00:00.10 bitrate=  45.0kbits/s speed=0.00365x elapsed=0:00:27.38    \nframe=    7 fps=0.3 q=45.0 size=       1KiB time=00:00:00.12 bitrate=  37.5kbits/s speed=0.0043x elapsed=0:00:27.90    \nframe=    8 fps=0.3 q=45.0 size=       1KiB time=00:00:00.14 bitrate=  32.1kbits/s speed=0.00493x elapsed=0:00:28.42    \nframe=    8 fps=0.3 q=45.0 size=       1KiB time=00:00:00.14 bitrate=  32.1kbits/s speed=0.00484x elapsed=0:00:28.93    \nframe=    9 fps=0.3 q=40.0 size=       1KiB time=00:00:00.16 bitrate=  28.1kbits/s speed=0.00543x elapsed=0:00:29.44    \nframe=   10 fps=0.3 q=43.0 size=       1KiB time=00:00:00.18 bitrate=  25.0kbits/s speed=0.00601x elapsed=0:00:29.95    \nframe=   12 fps=0.4 q=43.0 size=       1KiB time=00:00:00.22 bitrate=  20.4kbits/s speed=0.00722x elapsed=0:00:30.47    \nframe=   12 fps=0.4 q=43.0 size=       1KiB time=00:00:00.22 bitrate=  20.4kbits/s speed=0.0071x elapsed=0:00:30.99    \nframe=   13 fps=0.4 q=43.0 size=       1KiB time=00:00:00.24 bitrate=  18.7kbits/s speed=0.00762x elapsed=0:00:31.50    \nframe=   14 fps=0.4 q=42.0 size=       1KiB time=00:00:00.26 bitrate=  17.3kbits/s speed=0.00812x elapsed=0:00:32.02    \nframe=   15 fps=0.5 q=44.0 size=       1KiB time=00:00:00.28 bitrate=  16.1kbits/s speed=0.0086x elapsed=0:00:32.54    \nframe=   16 fps=0.5 q=42.0 size=       1KiB time=00:00:00.30 bitrate=  15.0kbits/s speed=0.00907x elapsed=0:00:33.05    \nframe=   16 fps=0.5 q=42.0 size=       1KiB time=00:00:00.30 bitrate=  15.0kbits/s speed=0.00893x elapsed=0:00:33.57    \nframe=   17 fps=0.5 q=30.0 size=       1KiB time=00:00:00.32 bitrate=  14.1kbits/s speed=0.00939x elapsed=0:00:34.08    \nframe=   17 fps=0.5 q=30.0 size=       1KiB time=00:00:00.32 bitrate=  14.1kbits/s speed=0.00925x elapsed=0:00:34.60    \nframe=   18 fps=0.5 q=41.0 size=       1KiB time=00:00:00.34 bitrate=  13.2kbits/s speed=0.00968x elapsed=0:00:35.11    \nframe=   18 fps=0.5 q=41.0 size=       1KiB time=00:00:00.34 bitrate=  13.2kbits/s speed=0.00954x elapsed=0:00:35.63    \nframe=   20 fps=0.6 q=40.0 size=       1KiB time=00:00:00.38 bitrate=  11.8kbits/s speed=0.0105x elapsed=0:00:36.14    \nframe=   21 fps=0.6 q=43.0 size=       1KiB time=00:00:00.40 bitrate=  11.2kbits/s speed=0.0109x elapsed=0:00:36.66    \nframe=   21 fps=0.6 q=43.0 size=       1KiB time=00:00:00.40 bitrate=  11.2kbits/s speed=0.0108x elapsed=0:00:37.18    \nframe=   22 fps=0.6 q=40.0 size=       1KiB time=00:00:00.42 bitrate=  10.7kbits/s speed=0.0111x elapsed=0:00:37.70    \nframe=   23 fps=0.6 q=43.0 size=       1KiB time=00:00:00.44 bitrate=  10.2kbits/s speed=0.0115x elapsed=0:00:38.21    \nframe=   23 fps=0.6 q=43.0 size=       1KiB time=00:00:00.44 bitrate=  10.2kbits/s speed=0.0114x elapsed=0:00:38.72    \nframe=   23 fps=0.6 q=43.0 size=       1KiB time=00:00:00.44 bitrate=  10.2kbits/s speed=0.0112x elapsed=0:00:39.24    \nframe=   23 fps=0.6 q=43.0 size=       1KiB time=00:00:00.44 bitrate=  10.2kbits/s speed=0.0111x elapsed=0:00:39.75    \nframe=   24 fps=0.6 q=39.0 size=       1KiB time=00:00:00.46 bitrate=   9.8kbits/s speed=0.0114x elapsed=0:00:40.27    \nframe=   25 fps=0.6 q=41.0 size=       1KiB time=00:00:00.48 bitrate=   9.4kbits/s speed=0.0118x elapsed=0:00:40.79    \nframe=   25 fps=0.6 q=41.0 size=       1KiB time=00:00:00.48 bitrate=   9.4kbits/s speed=0.0116x elapsed=0:00:41.30    \nframe=   26 fps=0.6 q=39.0 size=       1KiB time=00:00:00.50 bitrate=   9.0kbits/s speed=0.012x elapsed=0:00:41.82    \nframe=   28 fps=0.7 q=38.0 size=       1KiB time=00:00:00.54 bitrate=   8.3kbits/s speed=0.0128x elapsed=0:00:42.33    \nframe=   28 fps=0.7 q=38.0 size=       1KiB time=00:00:00.54 bitrate=   8.3kbits/s speed=0.0126x elapsed=0:00:42.85    \nframe=   29 fps=0.7 q=41.0 size=       1KiB time=00:00:00.56 bitrate=   8.0kbits/s speed=0.0129x elapsed=0:00:43.36    \nframe=   29 fps=0.7 q=41.0 size=       1KiB time=00:00:00.56 bitrate=   8.0kbits/s speed=0.0128x elapsed=0:00:43.87    \nframe=   32 fps=0.7 q=41.0 size=       1KiB time=00:00:00.62 bitrate=   7.3kbits/s speed=0.014x elapsed=0:00:44.39    \nframe=   32 fps=0.7 q=41.0 size=       1KiB time=00:00:00.62 bitrate=   7.3kbits/s speed=0.0138x elapsed=0:00:44.90    \nframe=   33 fps=0.7 q=29.0 size=       1KiB time=00:00:00.64 bitrate=   7.0kbits/s speed=0.0141x elapsed=0:00:45.42    \nframe=   33 fps=0.7 q=29.0 size=       1KiB time=00:00:00.64 bitrate=   7.0kbits/s speed=0.0139x elapsed=0:00:45.95    \nframe=   34 fps=0.7 q=40.0 size=       1KiB time=00:00:00.66 bitrate=   6.8kbits/s speed=0.0142x elapsed=0:00:46.45    \nframe=   34 fps=0.7 q=40.0 size=       1KiB time=00:00:00.66 bitrate=   6.8kbits/s speed=0.0141x elapsed=0:00:46.97    \nframe=   35 fps=0.7 q=42.0 size=       1KiB time=00:00:00.68 bitrate=   6.6kbits/s speed=0.0143x elapsed=0:00:47.49    \nframe=   35 fps=0.7 q=42.0 size=       1KiB time=00:00:00.68 bitrate=   6.6kbits/s speed=0.0142x elapsed=0:00:48.00    \nframe=   36 fps=0.7 q=36.0 size=       1KiB time=00:00:00.70 bitrate=   6.4kbits/s speed=0.0144x elapsed=0:00:48.52    \nframe=   36 fps=0.7 q=36.0 size=       1KiB time=00:00:00.70 bitrate=   6.4kbits/s speed=0.0143x elapsed=0:00:49.04    \nframe=   37 fps=0.7 q=43.0 size=       1KiB time=00:00:00.72 bitrate=   6.2kbits/s speed=0.0145x elapsed=0:00:49.56    \nframe=   39 fps=0.8 q=42.0 size=       1KiB time=00:00:00.76 bitrate=   5.9kbits/s speed=0.0152x elapsed=0:00:50.09    \nframe=   39 fps=0.8 q=42.0 size=       1KiB time=00:00:00.76 bitrate=   5.9kbits/s speed=0.015x elapsed=0:00:50.60    \nframe=   39 fps=0.8 q=42.0 size=       1KiB time=00:00:00.76 bitrate=   5.9kbits/s speed=0.0149x elapsed=0:00:51.11    \nframe=   40 fps=0.8 q=38.0 size=       1KiB time=00:00:00.78 bitrate=   5.8kbits/s speed=0.0151x elapsed=0:00:51.63    \nframe=   40 fps=0.8 q=38.0 size=       1KiB time=00:00:00.78 bitrate=   5.8kbits/s speed=0.015x elapsed=0:00:52.15    \nframe=   40 fps=0.8 q=38.0 size=       1KiB time=00:00:00.78 bitrate=   5.8kbits/s speed=0.0148x elapsed=0:00:52.65    \nframe=   41 fps=0.8 q=40.0 size=       1KiB time=00:00:00.80 bitrate=   5.6kbits/s speed=0.015x elapsed=0:00:53.17    \nframe=   42 fps=0.8 q=38.0 size=       1KiB time=00:00:00.82 bitrate=   5.5kbits/s speed=0.0153x elapsed=0:00:53.70    \nframe=   43 fps=0.8 q=42.0 size=       1KiB time=00:00:00.84 bitrate=   5.4kbits/s speed=0.0155x elapsed=0:00:54.21    \nframe=   43 fps=0.8 q=42.0 size=       1KiB time=00:00:00.84 bitrate=   5.4kbits/s speed=0.0153x elapsed=0:00:54.72    \nframe=   44 fps=0.8 q=37.0 size=       1KiB time=00:00:00.86 bitrate=   5.2kbits/s speed=0.0156x elapsed=0:00:55.27    \nframe=   45 fps=0.8 q=41.0 size=       1KiB time=00:00:00.88 bitrate=   5.1kbits/s speed=0.0158x elapsed=0:00:55.86    \nframe=   46 fps=0.8 q=37.0 size=       1KiB time=00:00:00.90 bitrate=   5.0kbits/s speed=0.0159x elapsed=0:00:56.45    \nframe=   47 fps=0.8 q=42.0 size=       1KiB time=00:00:00.92 bitrate=   4.9kbits/s speed=0.0161x elapsed=0:00:57.02    \nframe=   47 fps=0.8 q=42.0 size=       1KiB time=00:00:00.92 bitrate=   4.9kbits/s speed=0.016x elapsed=0:00:57.58    \nframe=   48 fps=0.8 q=40.0 size=       1KiB time=00:00:00.94 bitrate=   4.8kbits/s speed=0.0162x elapsed=0:00:58.16    \nframe=   48 fps=0.8 q=40.0 size=       1KiB time=00:00:00.94 bitrate=   4.8kbits/s speed=0.016x elapsed=0:00:58.67    \nframe=   49 fps=0.8 q=27.0 size=       1KiB time=00:00:00.96 bitrate=   4.7kbits/s speed=0.0162x elapsed=0:00:59.23    \nframe=   49 fps=0.8 q=27.0 size=       1KiB time=00:00:00.96 bitrate=   4.7kbits/s speed=0.0161x elapsed=0:00:59.80    \nframe=   50 fps=0.8 q=39.0 size=       1KiB time=00:00:00.98 bitrate=   4.6kbits/s speed=0.0162x elapsed=0:01:00.37    \nframe=   51 fps=0.8 q=42.0 size=       1KiB time=00:00:01.00 bitrate=   4.5kbits/s speed=0.0164x elapsed=0:01:00.89    \nframe=   52 fps=0.8 q=37.0 size=       1KiB time=00:00:01.02 bitrate=   4.4kbits/s speed=0.0166x elapsed=0:01:01.45    \nframe=   53 fps=0.9 q=42.0 size=       1KiB time=00:00:01.04 bitrate=   4.3kbits/s speed=0.0168x elapsed=0:01:01.97    \nframe=   54 fps=0.9 q=38.0 size=       1KiB time=00:00:01.06 bitrate=   4.2kbits/s speed=0.017x elapsed=0:01:02.50    \nframe=   54 fps=0.9 q=38.0 size=       1KiB time=00:00:01.06 bitrate=   4.2kbits/s speed=0.0168x elapsed=0:01:03.07    \nframe=   55 fps=0.9 q=43.0 size=       1KiB time=00:00:01.08 bitrate=   4.2kbits/s speed=0.017x elapsed=0:01:03.60    \nframe=   55 fps=0.9 q=43.0 size=       1KiB time=00:00:01.08 bitrate=   4.2kbits/s speed=0.0168x elapsed=0:01:04.17    \nframe=   56 fps=0.9 q=39.0 size=       1KiB time=00:00:01.10 bitrate=   4.1kbits/s speed=0.017x elapsed=0:01:04.70    \nframe=   56 fps=0.9 q=39.0 size=       1KiB time=00:00:01.10 bitrate=   4.1kbits/s speed=0.0168x elapsed=0:01:05.32    \nframe=   57 fps=0.9 q=39.0 size=       1KiB time=00:00:01.12 bitrate=   4.0kbits/s speed=0.017x elapsed=0:01:05.83    \nframe=   59 fps=0.9 q=43.0 size=       1KiB time=00:00:01.16 bitrate=   3.9kbits/s speed=0.0175x elapsed=0:01:06.34    \nframe=   59 fps=0.9 q=43.0 size=       1KiB time=00:00:01.16 bitrate=   3.9kbits/s speed=0.0173x elapsed=0:01:06.88    \nframe=   60 fps=0.9 q=39.0 size=       1KiB time=00:00:01.18 bitrate=   3.8kbits/s speed=0.0175x elapsed=0:01:07.44    \nframe=   61 fps=0.9 q=40.0 size=       1KiB time=00:00:01.20 bitrate=   3.7kbits/s speed=0.0177x elapsed=0:01:07.97    \nframe=   62 fps=0.9 q=39.0 size=       1KiB time=00:00:01.22 bitrate=   3.7kbits/s speed=0.0178x elapsed=0:01:08.51    \nframe=   63 fps=0.9 q=42.0 size=       1KiB time=00:00:01.24 bitrate=   3.6kbits/s speed=0.018x elapsed=0:01:09.07    \nframe=   63 fps=0.9 q=42.0 size=       1KiB time=00:00:01.24 bitrate=   3.6kbits/s speed=0.0178x elapsed=0:01:09.60    \nframe=   63 fps=0.9 q=42.0 size=       1KiB time=00:00:01.24 bitrate=   3.6kbits/s speed=0.0177x elapsed=0:01:10.12    \nframe=   65 fps=0.9 q=22.0 size=       1KiB time=00:00:01.28 bitrate=   3.5kbits/s speed=0.0181x elapsed=0:01:10.65    \nframe=   65 fps=0.9 q=22.0 size=       1KiB time=00:00:01.28 bitrate=   3.5kbits/s speed=0.018x elapsed=0:01:11.18    \nframe=   66 fps=0.9 q=39.0 size=       1KiB time=00:00:01.30 bitrate=   3.5kbits/s speed=0.0181x elapsed=0:01:11.70    \nframe=   66 fps=0.9 q=39.0 size=       1KiB time=00:00:01.30 bitrate=   3.5kbits/s speed=0.018x elapsed=0:01:12.23    \nframe=   68 fps=0.9 q=38.0 size=       1KiB time=00:00:01.34 bitrate=   3.4kbits/s speed=0.0184x elapsed=0:01:12.76    \nframe=   69 fps=0.9 q=42.0 size=       1KiB time=00:00:01.36 bitrate=   3.3kbits/s speed=0.0186x elapsed=0:01:13.29    \nframe=   70 fps=0.9 q=38.0 size=       1KiB time=00:00:01.38 bitrate=   3.3kbits/s speed=0.0187x elapsed=0:01:13.80    \nframe=   70 fps=0.9 q=38.0 size=       1KiB time=00:00:01.38 bitrate=   3.3kbits/s speed=0.0186x elapsed=0:01:14.31    \nframe=   70 fps=0.9 q=38.0 size=       1KiB time=00:00:01.38 bitrate=   3.3kbits/s speed=0.0184x elapsed=0:01:14.85    \nframe=   71 fps=0.9 q=41.0 size=       1KiB time=00:00:01.40 bitrate=   3.2kbits/s speed=0.0186x elapsed=0:01:15.36    \nframe=   71 fps=0.9 q=41.0 size=       1KiB time=00:00:01.40 bitrate=   3.2kbits/s speed=0.0185x elapsed=0:01:15.87    \nframe=   72 fps=0.9 q=33.0 size=       1KiB time=00:00:01.42 bitrate=   3.2kbits/s speed=0.0186x elapsed=0:01:16.40    \nframe=   73 fps=0.9 q=39.0 size=       1KiB time=00:00:01.44 bitrate=   3.1kbits/s speed=0.0187x elapsed=0:01:16.95    \nframe=   74 fps=1.0 q=40.0 size=       1KiB time=00:00:01.46 bitrate=   3.1kbits/s speed=0.0188x elapsed=0:01:17.51    \nframe=   75 fps=1.0 q=42.0 size=       1KiB time=00:00:01.48 bitrate=   3.0kbits/s speed=0.019x elapsed=0:01:18.04    \nframe=   75 fps=1.0 q=42.0 size=       1KiB time=00:00:01.48 bitrate=   3.0kbits/s speed=0.0188x elapsed=0:01:18.60    \nframe=   76 fps=1.0 q=40.0 size=       1KiB time=00:00:01.50 bitrate=   3.0kbits/s speed=0.0189x elapsed=0:01:19.16    \nframe=   77 fps=1.0 q=40.0 size=       1KiB time=00:00:01.52 bitrate=   3.0kbits/s speed=0.0191x elapsed=0:01:19.71    \nframe=   79 fps=1.0 q=43.0 size=       1KiB time=00:00:01.56 bitrate=   2.9kbits/s speed=0.0194x elapsed=0:01:20.24    \nframe=   80 fps=1.0 q=40.0 size=       1KiB time=00:00:01.58 bitrate=   2.8kbits/s speed=0.0196x elapsed=0:01:20.77    \nframe=   81 fps=1.0 q=23.0 size=       1KiB time=00:00:01.60 bitrate=   2.8kbits/s speed=0.0197x elapsed=0:01:21.33    \nframe=   83 fps=1.0 q=42.0 size=       1KiB time=00:00:01.64 bitrate=   2.7kbits/s speed=0.02x elapsed=0:01:21.84    \nframe=   83 fps=1.0 q=42.0 size=       1KiB time=00:00:01.64 bitrate=   2.7kbits/s speed=0.0199x elapsed=0:01:22.44    \nframe=   84 fps=1.0 q=40.0 size=       1KiB time=00:00:01.66 bitrate=   2.7kbits/s speed=0.02x elapsed=0:01:23.04    \nframe=   85 fps=1.0 q=42.0 size=       1KiB time=00:00:01.68 bitrate=   2.7kbits/s speed=0.0201x elapsed=0:01:23.62    \nframe=   86 fps=1.0 q=40.0 size=       1KiB time=00:00:01.70 bitrate=   2.6kbits/s speed=0.0202x elapsed=0:01:24.16    \nframe=   86 fps=1.0 q=40.0 size=       1KiB time=00:00:01.70 bitrate=   2.6kbits/s speed=0.0201x elapsed=0:01:24.69    \nframe=   87 fps=1.0 q=42.0 size=       1KiB time=00:00:01.72 bitrate=   2.6kbits/s speed=0.0202x elapsed=0:01:25.26    \nframe=   87 fps=1.0 q=42.0 size=       1KiB time=00:00:01.72 bitrate=   2.6kbits/s speed=0.02x elapsed=0:01:25.83    \nframe=   87 fps=1.0 q=42.0 size=       1KiB time=00:00:01.72 bitrate=   2.6kbits/s speed=0.0199x elapsed=0:01:26.37    \nframe=   90 fps=1.0 q=40.0 size=       1KiB time=00:00:01.78 bitrate=   2.5kbits/s speed=0.0205x elapsed=0:01:26.89    \nframe=   91 fps=1.0 q=42.0 size=       1KiB time=00:00:01.80 bitrate=   2.5kbits/s speed=0.0206x elapsed=0:01:27.42    \nframe=   91 fps=1.0 q=42.0 size=       1KiB time=00:00:01.80 bitrate=   2.5kbits/s speed=0.0205x elapsed=0:01:27.95    \nframe=   92 fps=1.0 q=40.0 size=       1KiB time=00:00:01.82 bitrate=   2.5kbits/s speed=0.0206x elapsed=0:01:28.46    \nframe=   94 fps=1.1 q=40.0 size=       1KiB time=00:00:01.86 bitrate=   2.4kbits/s speed=0.0209x elapsed=0:01:28.98    \nframe=   96 fps=1.1 q=40.0 size=       1KiB time=00:00:01.90 bitrate=   2.4kbits/s speed=0.0212x elapsed=0:01:29.50    \nframe=   98 fps=1.1 q=40.0 size=       1KiB time=00:00:01.94 bitrate=   2.3kbits/s speed=0.0215x elapsed=0:01:30.05    \nframe=   98 fps=1.1 q=40.0 size=       1KiB time=00:00:01.94 bitrate=   2.3kbits/s speed=0.0214x elapsed=0:01:30.57    \nframe=   99 fps=1.1 q=42.0 size=       1KiB time=00:00:01.96 bitrate=   2.3kbits/s speed=0.0215x elapsed=0:01:31.14    \nframe=   99 fps=1.1 q=42.0 size=       1KiB time=00:00:01.96 bitrate=   2.3kbits/s speed=0.0214x elapsed=0:01:31.71    \nframe=  100 fps=1.1 q=36.0 size=       1KiB time=00:00:01.98 bitrate=   2.3kbits/s speed=0.0215x elapsed=0:01:32.27    \nframe=  101 fps=1.1 q=41.0 size=       1KiB time=00:00:02.00 bitrate=   2.2kbits/s speed=0.0215x elapsed=0:01:32.82    \nframe=  102 fps=1.1 q=40.0 size=       1KiB time=00:00:02.02 bitrate=   2.2kbits/s speed=0.0216x elapsed=0:01:33.38    \nframe=  102 fps=1.1 q=40.0 size=       1KiB time=00:00:02.02 bitrate=   2.2kbits/s speed=0.0215x elapsed=0:01:33.93    \nframe=  103 fps=1.1 q=41.0 size=       1KiB time=00:00:02.04 bitrate=   2.2kbits/s speed=0.0216x elapsed=0:01:34.43    \nframe=  103 fps=1.1 q=41.0 size=       1KiB time=00:00:02.04 bitrate=   2.2kbits/s speed=0.0215x elapsed=0:01:35.02    \nframe=  104 fps=1.1 q=40.0 size=       1KiB time=00:00:02.06 bitrate=   2.2kbits/s speed=0.0216x elapsed=0:01:35.56    \nframe=  105 fps=1.1 q=37.0 size=       1KiB time=00:00:02.08 bitrate=   2.2kbits/s speed=0.0216x elapsed=0:01:36.12    \nframe=  107 fps=1.1 q=43.0 size=       1KiB time=00:00:02.12 bitrate=   2.1kbits/s speed=0.0219x elapsed=0:01:36.70    \nframe=  107 fps=1.1 q=43.0 size=       1KiB time=00:00:02.12 bitrate=   2.1kbits/s speed=0.0218x elapsed=0:01:37.25    \nframe=  108 fps=1.1 q=42.0 size=       1KiB time=00:00:02.14 bitrate=   2.1kbits/s speed=0.0219x elapsed=0:01:37.88    \nframe=  109 fps=1.1 q=40.0 size=       1KiB time=00:00:02.16 bitrate=   2.1kbits/s speed=0.0219x elapsed=0:01:38.51    \nframe=  111 fps=1.1 q=43.0 size=       1KiB time=00:00:02.20 bitrate=   2.0kbits/s speed=0.0222x elapsed=0:01:39.12    \nframe=  111 fps=1.1 q=43.0 size=       1KiB time=00:00:02.20 bitrate=   2.0kbits/s speed=0.0221x elapsed=0:01:39.70    \nframe=  112 fps=1.1 q=42.0 size=       1KiB time=00:00:02.22 bitrate=   2.0kbits/s speed=0.0221x elapsed=0:01:40.32    \nframe=  114 fps=1.1 q=42.0 size=       1KiB time=00:00:02.26 bitrate=   2.0kbits/s speed=0.0224x elapsed=0:01:40.93    \nframe=  115 fps=1.1 q=43.0 size=       1KiB time=00:00:02.28 bitrate=   2.0kbits/s speed=0.0225x elapsed=0:01:41.50    \nframe=  116 fps=1.1 q=42.0 size=       1KiB time=00:00:02.30 bitrate=   2.0kbits/s speed=0.0225x elapsed=0:01:42.05    \nframe=  118 fps=1.2 q=41.0 size=       1KiB time=00:00:02.32 bitrate=   1.9kbits/s speed=0.0226x elapsed=0:01:42.60    \nframe=  118 fps=1.1 q=41.0 size=       1KiB time=00:00:02.34 bitrate=   1.9kbits/s speed=0.0227x elapsed=0:01:43.18    \nframe=  118 fps=1.1 q=41.0 size=       1KiB time=00:00:02.34 bitrate=   1.9kbits/s speed=0.0225x elapsed=0:01:43.82    \nframe=  119 fps=1.1 q=41.0 size=       1KiB time=00:00:02.36 bitrate=   1.9kbits/s speed=0.0226x elapsed=0:01:44.33    \nframe=  119 fps=1.1 q=41.0 size=       1KiB time=00:00:02.36 bitrate=   1.9kbits/s speed=0.0225x elapsed=0:01:44.85    \nframe=  120 fps=1.1 q=41.0 size=       1KiB time=00:00:02.36 bitrate=   1.9kbits/s speed=0.0223x elapsed=0:01:45.69    \nframe=  122 fps=1.1 q=41.0 size=       1KiB time=00:00:02.42 bitrate=   1.9kbits/s speed=0.0227x elapsed=0:01:46.45    \nframe=  123 fps=1.1 q=41.0 size=       1KiB time=00:00:02.44 bitrate=   1.8kbits/s speed=0.0228x elapsed=0:01:47.24    \nframe=  123 fps=1.1 q=41.0 size=       1KiB time=00:00:02.44 bitrate=   1.8kbits/s speed=0.0226x elapsed=0:01:47.98    \nframe=  124 fps=1.1 q=38.0 size=       1KiB time=00:00:02.46 bitrate=   1.8kbits/s speed=0.0226x elapsed=0:01:48.81    \nframe=  127 fps=1.2 q=41.0 size=       1KiB time=00:00:02.48 bitrate=   1.8kbits/s speed=0.0226x elapsed=0:01:49.55    \nframe=  128 fps=1.2 q=40.0 size=       1KiB time=00:00:02.54 bitrate=   1.8kbits/s speed=0.023x elapsed=0:01:50.28    \nframe=  130 fps=1.2 q=40.0 size=       1KiB time=00:00:02.58 bitrate=   1.7kbits/s speed=0.0232x elapsed=0:01:51.09    \nframe=  131 fps=1.2 q=41.0 size=       1KiB time=00:00:02.60 bitrate=   1.7kbits/s speed=0.0232x elapsed=0:01:51.93    \nframe=  131 fps=1.2 q=41.0 size=       1KiB time=00:00:02.60 bitrate=   1.7kbits/s speed=0.0231x elapsed=0:01:52.46    \nframe=  132 fps=1.2 q=40.0 size=       1KiB time=00:00:02.62 bitrate=   1.7kbits/s speed=0.0232x elapsed=0:01:52.97    \nframe=  133 fps=1.2 q=41.0 size=       1KiB time=00:00:02.64 bitrate=   1.7kbits/s speed=0.0233x elapsed=0:01:53.49    \nframe=  133 fps=1.2 q=41.0 size=       1KiB time=00:00:02.64 bitrate=   1.7kbits/s speed=0.0232x elapsed=0:01:54.01    \nframe=  134 fps=1.2 q=41.0 size=       1KiB time=00:00:02.66 bitrate=   1.7kbits/s speed=0.0232x elapsed=0:01:54.51    \nframe=  134 fps=1.2 q=41.0 size=       1KiB time=00:00:02.66 bitrate=   1.7kbits/s speed=0.0231x elapsed=0:01:55.03    \nframe=  134 fps=1.2 q=41.0 size=       1KiB time=00:00:02.66 bitrate=   1.7kbits/s speed=0.023x elapsed=0:01:55.55    \nframe=  135 fps=1.2 q=42.0 size=       1KiB time=00:00:02.68 bitrate=   1.7kbits/s speed=0.0231x elapsed=0:01:56.07    \nframe=  135 fps=1.2 q=42.0 size=       1KiB time=00:00:02.68 bitrate=   1.7kbits/s speed=0.023x elapsed=0:01:56.58    \nframe=  136 fps=1.2 q=41.0 size=       1KiB time=00:00:02.70 bitrate=   1.7kbits/s speed=0.0231x elapsed=0:01:57.09    \nframe=  138 fps=1.2 q=41.0 size=       1KiB time=00:00:02.74 bitrate=   1.6kbits/s speed=0.0233x elapsed=0:01:57.61    \nframe=  139 fps=1.2 q=42.0 size=       1KiB time=00:00:02.76 bitrate=   1.6kbits/s speed=0.0234x elapsed=0:01:58.13    \nframe=  139 fps=1.2 q=42.0 size=       1KiB time=00:00:02.76 bitrate=   1.6kbits/s speed=0.0233x elapsed=0:01:58.65    \nframe=  140 fps=1.2 q=38.0 size=       1KiB time=00:00:02.78 bitrate=   1.6kbits/s speed=0.0233x elapsed=0:01:59.16    \nframe=  140 fps=1.2 q=38.0 size=       1KiB time=00:00:02.78 bitrate=   1.6kbits/s speed=0.0232x elapsed=0:01:59.67    \nframe=  141 fps=1.2 q=40.0 size=       1KiB time=00:00:02.80 bitrate=   1.6kbits/s speed=0.0233x elapsed=0:02:00.20    \nframe=  143 fps=1.2 q=42.0 size=       1KiB time=00:00:02.84 bitrate=   1.6kbits/s speed=0.0235x elapsed=0:02:00.70    \nframe=  143 fps=1.2 q=42.0 size=       1KiB time=00:00:02.84 bitrate=   1.6kbits/s speed=0.0234x elapsed=0:02:01.23    \nframe=  144 fps=1.2 q=41.0 size=       1KiB time=00:00:02.86 bitrate=   1.6kbits/s speed=0.0235x elapsed=0:02:01.74    \nframe=  146 fps=1.2 q=41.0 size=       1KiB time=00:00:02.90 bitrate=   1.6kbits/s speed=0.0237x elapsed=0:02:02.25    \nframe=  146 fps=1.2 q=41.0 size=       1KiB time=00:00:02.90 bitrate=   1.6kbits/s speed=0.0236x elapsed=0:02:02.77    \nframe=  147 fps=1.2 q=42.0 size=       1KiB time=00:00:02.92 bitrate=   1.5kbits/s speed=0.0237x elapsed=0:02:03.28    \nframe=  148 fps=1.2 q=35.0 size=       1KiB time=00:00:02.94 bitrate=   1.5kbits/s speed=0.0237x elapsed=0:02:03.80    \nframe=  149 fps=1.2 q=42.0 size=       1KiB time=00:00:02.96 bitrate=   1.5kbits/s speed=0.0238x elapsed=0:02:04.31    \nframe=  150 fps=1.2 q=41.0 size=       1KiB time=00:00:02.98 bitrate=   1.5kbits/s speed=0.0239x elapsed=0:02:04.83    \nframe=  150 fps=1.2 q=41.0 size=       1KiB time=00:00:02.98 bitrate=   1.5kbits/s speed=0.0238x elapsed=0:02:05.34    \nframe=  151 fps=1.2 q=41.0 size=       1KiB time=00:00:03.00 bitrate=   1.5kbits/s speed=0.0238x elapsed=0:02:05.86    \nframe=  151 fps=1.2 q=41.0 size=       1KiB time=00:00:03.00 bitrate=   1.5kbits/s speed=0.0237x elapsed=0:02:06.38    \nframe=  151 fps=1.2 q=41.0 size=       1KiB time=00:00:03.00 bitrate=   1.5kbits/s speed=0.0236x elapsed=0:02:06.89    \nframe=  152 fps=1.2 q=41.0 size=       1KiB time=00:00:03.02 bitrate=   1.5kbits/s speed=0.0237x elapsed=0:02:07.41    \nframe=  154 fps=1.2 q=41.0 size=       1KiB time=00:00:03.06 bitrate=   1.5kbits/s speed=0.0239x elapsed=0:02:07.92    \nframe=  155 fps=1.2 q=42.0 size=       1KiB time=00:00:03.08 bitrate=   1.5kbits/s speed=0.024x elapsed=0:02:08.43    \nframe=  155 fps=1.2 q=42.0 size=       1KiB time=00:00:03.08 bitrate=   1.5kbits/s speed=0.0239x elapsed=0:02:08.96    \nframe=  156 fps=1.2 q=41.0 size=       1KiB time=00:00:03.10 bitrate=   1.5kbits/s speed=0.0239x elapsed=0:02:09.47    \nframe=  157 fps=1.2 q=40.0 size=       1KiB time=00:00:03.12 bitrate=   1.4kbits/s speed=0.024x elapsed=0:02:09.98    \nframe=  159 fps=1.2 q=42.0 size=       1KiB time=00:00:03.16 bitrate=   1.4kbits/s speed=0.0242x elapsed=0:02:10.51    \nframe=  161 fps=1.2 q=25.0 size=       1KiB time=00:00:03.18 bitrate=   1.4kbits/s speed=0.0243x elapsed=0:02:11.10    \nframe=  162 fps=1.2 q=42.0 size=       1KiB time=00:00:03.22 bitrate=   1.4kbits/s speed=0.0245x elapsed=0:02:11.64    \nframe=  163 fps=1.2 q=43.0 size=       1KiB time=00:00:03.24 bitrate=   1.4kbits/s speed=0.0245x elapsed=0:02:12.16    \nframe=  165 fps=1.2 q=42.0 size=       1KiB time=00:00:03.28 bitrate=   1.4kbits/s speed=0.0247x elapsed=0:02:12.82    \nframe=  166 fps=1.2 q=41.0 size=       1KiB time=00:00:03.30 bitrate=   1.4kbits/s speed=0.0247x elapsed=0:02:13.35    \nframe=  166 fps=1.2 q=41.0 size=       1KiB time=00:00:03.30 bitrate=   1.4kbits/s speed=0.0247x elapsed=0:02:13.87    \nframe=  167 fps=1.2 q=42.0 size=       1KiB time=00:00:03.32 bitrate=   1.4kbits/s speed=0.0247x elapsed=0:02:14.39    \nframe=  167 fps=1.2 q=42.0 size=       1KiB time=00:00:03.32 bitrate=   1.4kbits/s speed=0.0246x elapsed=0:02:14.92    \nframe=  170 fps=1.3 q=42.0 size=       1KiB time=00:00:03.38 bitrate=   1.3kbits/s speed=0.025x elapsed=0:02:15.45    \nframe=  172 fps=1.3 q=42.0 size=       1KiB time=00:00:03.42 bitrate=   1.3kbits/s speed=0.0252x elapsed=0:02:15.97    \nframe=  174 fps=1.3 q=40.0 size=       1KiB time=00:00:03.44 bitrate=   1.3kbits/s speed=0.0252x elapsed=0:02:16.54    \nframe=  175 fps=1.3 q=40.0 size=       1KiB time=00:00:03.48 bitrate=   1.3kbits/s speed=0.0254x elapsed=0:02:17.12    \nframe=  175 fps=1.3 q=40.0 size=       1KiB time=00:00:03.48 bitrate=   1.3kbits/s speed=0.0253x elapsed=0:02:17.71    \nframe=  176 fps=1.3 q=40.0 size=       1KiB time=00:00:03.50 bitrate=   1.3kbits/s speed=0.0253x elapsed=0:02:18.30    \nframe=  176 fps=1.3 q=40.0 size=       1KiB time=00:00:03.50 bitrate=   1.3kbits/s speed=0.0252x elapsed=0:02:18.83    \nframe=  177 fps=1.3 q=25.0 size=       1KiB time=00:00:03.52 bitrate=   1.3kbits/s speed=0.0253x elapsed=0:02:19.35    \nframe=  178 fps=1.3 q=41.0 size=       1KiB time=00:00:03.54 bitrate=   1.3kbits/s speed=0.0253x elapsed=0:02:19.86    \nframe=  179 fps=1.3 q=41.0 size=       1KiB time=00:00:03.56 bitrate=   1.3kbits/s speed=0.0254x elapsed=0:02:20.38    \nframe=  180 fps=1.3 q=41.0 size=       1KiB time=00:00:03.58 bitrate=   1.3kbits/s speed=0.0254x elapsed=0:02:20.89    \nframe=  181 fps=1.3 q=42.0 size=       1KiB time=00:00:03.60 bitrate=   1.2kbits/s speed=0.0255x elapsed=0:02:21.40    \nframe=  182 fps=1.3 q=41.0 size=       1KiB time=00:00:03.62 bitrate=   1.2kbits/s speed=0.0255x elapsed=0:02:21.93    \nframe=  183 fps=1.3 q=41.0 size=       1KiB time=00:00:03.64 bitrate=   1.2kbits/s speed=0.0256x elapsed=0:02:22.44    \nframe=  184 fps=1.3 q=41.0 size=       1KiB time=00:00:03.66 bitrate=   1.2kbits/s speed=0.0256x elapsed=0:02:22.95    \nframe=  185 fps=1.3 q=35.0 size=       1KiB time=00:00:03.68 bitrate=   1.2kbits/s speed=0.0256x elapsed=0:02:23.47    \nframe=  187 fps=1.3 q=41.0 size=       1KiB time=00:00:03.72 bitrate=   1.2kbits/s speed=0.0258x elapsed=0:02:23.99    \nframe=  187 fps=1.3 q=41.0 size=       1KiB time=00:00:03.72 bitrate=   1.2kbits/s speed=0.0257x elapsed=0:02:24.51    \nframe=  188 fps=1.3 q=41.0 size=       1KiB time=00:00:03.74 bitrate=   1.2kbits/s speed=0.0258x elapsed=0:02:25.02    \nframe=  188 fps=1.3 q=41.0 size=       1KiB time=00:00:03.74 bitrate=   1.2kbits/s speed=0.0257x elapsed=0:02:25.54    \nframe=  191 fps=1.3 q=41.0 size=       1KiB time=00:00:03.80 bitrate=   1.2kbits/s speed=0.026x elapsed=0:02:26.06    \nframe=  191 fps=1.3 q=41.0 size=       1KiB time=00:00:03.80 bitrate=   1.2kbits/s speed=0.0259x elapsed=0:02:26.58    \nframe=  192 fps=1.3 q=41.0 size=       1KiB time=00:00:03.82 bitrate=   1.2kbits/s speed=0.026x elapsed=0:02:27.10    \nframe=  193 fps=1.3 q=26.0 size=       1KiB time=00:00:03.84 bitrate=   1.2kbits/s speed=0.026x elapsed=0:02:27.62    \nframe=  194 fps=1.3 q=41.0 size=       1KiB time=00:00:03.86 bitrate=   1.2kbits/s speed=0.0261x elapsed=0:02:28.12    \nframe=  197 fps=1.3 q=42.0 size=       1KiB time=00:00:03.92 bitrate=   1.1kbits/s speed=0.0264x elapsed=0:02:28.64    \nframe=  198 fps=1.3 q=41.0 size=       1KiB time=00:00:03.94 bitrate=   1.1kbits/s speed=0.0264x elapsed=0:02:29.16    \nframe=  199 fps=1.3 q=41.0 size=       1KiB time=00:00:03.96 bitrate=   1.1kbits/s speed=0.0265x elapsed=0:02:29.67    \nframe=  200 fps=1.3 q=41.0 size=       1KiB time=00:00:03.98 bitrate=   1.1kbits/s speed=0.0265x elapsed=0:02:30.19    \nframe=  202 fps=1.3 q=41.0 size=       1KiB time=00:00:04.02 bitrate=   1.1kbits/s speed=0.0267x elapsed=0:02:30.71    \nframe=  203 fps=1.3 q=41.0 size=       1KiB time=00:00:04.04 bitrate=   1.1kbits/s speed=0.0267x elapsed=0:02:31.22    \nframe=  204 fps=1.3 q=41.0 size=       1KiB time=00:00:04.06 bitrate=   1.1kbits/s speed=0.0268x elapsed=0:02:31.74    \nframe=  205 fps=1.3 q=41.0 size=       1KiB time=00:00:04.08 bitrate=   1.1kbits/s speed=0.0268x elapsed=0:02:32.25    \nframe=  207 fps=1.4 q=41.0 size=       1KiB time=00:00:04.12 bitrate=   1.1kbits/s speed=0.027x elapsed=0:02:32.77    \nframe=  207 fps=1.4 q=41.0 size=       1KiB time=00:00:04.12 bitrate=   1.1kbits/s speed=0.0269x elapsed=0:02:33.29    \nframe=  208 fps=1.4 q=41.0 size=       1KiB time=00:00:04.14 bitrate=   1.1kbits/s speed=0.0269x elapsed=0:02:33.82    \nframe=  209 fps=1.4 q=25.0 size=       1KiB time=00:00:04.16 bitrate=   1.1kbits/s speed=0.027x elapsed=0:02:34.33    \nframe=  210 fps=1.4 q=41.0 size=       1KiB time=00:00:04.18 bitrate=   1.1kbits/s speed=0.027x elapsed=0:02:34.84    \nframe=  212 fps=1.4 q=41.0 size=       1KiB time=00:00:04.22 bitrate=   1.1kbits/s speed=0.0272x elapsed=0:02:35.36    \nframe=  212 fps=1.4 q=41.0 size=       1KiB time=00:00:04.22 bitrate=   1.1kbits/s speed=0.0271x elapsed=0:02:35.88    \nframe=  214 fps=1.4 q=42.0 size=       1KiB time=00:00:04.26 bitrate=   1.1kbits/s speed=0.0272x elapsed=0:02:36.39    \nframe=  214 fps=1.4 q=42.0 size=       1KiB time=00:00:04.26 bitrate=   1.1kbits/s speed=0.0271x elapsed=0:02:36.90    \nframe=  215 fps=1.4 q=42.0 size=       1KiB time=00:00:04.28 bitrate=   1.1kbits/s speed=0.0272x elapsed=0:02:37.42    \nframe=  216 fps=1.4 q=42.0 size=       1KiB time=00:00:04.28 bitrate=   1.1kbits/s speed=0.0271x elapsed=0:02:37.94    \nframe=  216 fps=1.4 q=42.0 size=       1KiB time=00:00:04.30 bitrate=   1.0kbits/s speed=0.0271x elapsed=0:02:38.52    \nframe=  218 fps=1.4 q=42.0 size=       1KiB time=00:00:04.34 bitrate=   1.0kbits/s speed=0.0273x elapsed=0:02:39.04    \nframe=  219 fps=1.4 q=42.0 size=       1KiB time=00:00:04.36 bitrate=   1.0kbits/s speed=0.0273x elapsed=0:02:39.62    \nframe=  220 fps=1.4 q=39.0 size=       1KiB time=00:00:04.38 bitrate=   1.0kbits/s speed=0.0273x elapsed=0:02:40.19    \nframe=  221 fps=1.4 q=41.0 size=       1KiB time=00:00:04.40 bitrate=   1.0kbits/s speed=0.0274x elapsed=0:02:40.76    \nframe=  223 fps=1.4 q=42.0 size=       1KiB time=00:00:04.44 bitrate=   1.0kbits/s speed=0.0275x elapsed=0:02:41.28    \nframe=  223 fps=1.4 q=42.0 size=       1KiB time=00:00:04.44 bitrate=   1.0kbits/s speed=0.0274x elapsed=0:02:41.89    \nframe=  225 fps=1.4 q=25.0 size=       1KiB time=00:00:04.48 bitrate=   1.0kbits/s speed=0.0276x elapsed=0:02:42.43    \nframe=  227 fps=1.4 q=42.0 size=       1KiB time=00:00:04.52 bitrate=   1.0kbits/s speed=0.0277x elapsed=0:02:42.97    \nframe=  228 fps=1.4 q=42.0 size=       1KiB time=00:00:04.54 bitrate=   1.0kbits/s speed=0.0278x elapsed=0:02:43.48    \nframe=  230 fps=1.4 q=40.0 size=       1KiB time=00:00:04.58 bitrate=   1.0kbits/s speed=0.0279x elapsed=0:02:44.07    \nframe=  230 fps=1.4 q=40.0 size=       1KiB time=00:00:04.58 bitrate=   1.0kbits/s speed=0.0278x elapsed=0:02:44.64    \nframe=  231 fps=1.4 q=39.0 size=       1KiB time=00:00:04.58 bitrate=   1.0kbits/s speed=0.0277x elapsed=0:02:45.20    \nframe=  231 fps=1.4 q=39.0 size=       1KiB time=00:00:04.60 bitrate=   1.0kbits/s speed=0.0277x elapsed=0:02:45.88    \nframe=  231 fps=1.4 q=39.0 size=       1KiB time=00:00:04.60 bitrate=   1.0kbits/s speed=0.0276x elapsed=0:02:46.50    \nframe=  232 fps=1.4 q=40.0 size=       1KiB time=00:00:04.62 bitrate=   1.0kbits/s speed=0.0277x elapsed=0:02:47.02    \nframe=  234 fps=1.4 q=41.0 size=       1KiB time=00:00:04.66 bitrate=   1.0kbits/s speed=0.0278x elapsed=0:02:47.53    \nframe=  234 fps=1.4 q=41.0 size=       1KiB time=00:00:04.66 bitrate=   1.0kbits/s speed=0.0277x elapsed=0:02:48.06    \nframe=  235 fps=1.4 q=41.0 size=       1KiB time=00:00:04.68 bitrate=   1.0kbits/s speed=0.0278x elapsed=0:02:48.57    \nframe=  235 fps=1.4 q=41.0 size=       1KiB time=00:00:04.68 bitrate=   1.0kbits/s speed=0.0277x elapsed=0:02:49.08    \nframe=  236 fps=1.4 q=39.0 size=       1KiB time=00:00:04.70 bitrate=   1.0kbits/s speed=0.0277x elapsed=0:02:49.59    \nframe=  237 fps=1.4 q=41.0 size=       1KiB time=00:00:04.72 bitrate=   1.0kbits/s speed=0.0277x elapsed=0:02:50.11    \nframe=  239 fps=1.4 q=41.0 size=       1KiB time=00:00:04.76 bitrate=   0.9kbits/s speed=0.0279x elapsed=0:02:50.62    \nframe=  239 fps=1.4 q=41.0 size=       1KiB time=00:00:04.76 bitrate=   0.9kbits/s speed=0.0278x elapsed=0:02:51.14    \nframe=  240 fps=1.4 q=42.0 size=       1KiB time=00:00:04.78 bitrate=   0.9kbits/s speed=0.0278x elapsed=0:02:51.66    \nframe=  242 fps=1.4 q=42.0 size=       1KiB time=00:00:04.82 bitrate=   0.9kbits/s speed=0.028x elapsed=0:02:52.18    \nframe=  243 fps=1.4 q=42.0 size=       1KiB time=00:00:04.84 bitrate=   0.9kbits/s speed=0.028x elapsed=0:02:52.69    \nframe=  243 fps=1.4 q=42.0 size=       1KiB time=00:00:04.84 bitrate=   0.9kbits/s speed=0.0279x elapsed=0:02:53.21    \nframe=  244 fps=1.4 q=42.0 size=       1KiB time=00:00:04.86 bitrate=   0.9kbits/s speed=0.028x elapsed=0:02:53.73    \nframe=  244 fps=1.4 q=42.0 size=       1KiB time=00:00:04.86 bitrate=   0.9kbits/s speed=0.0279x elapsed=0:02:54.24    \nframe=  244 fps=1.4 q=42.0 size=       1KiB time=00:00:04.86 bitrate=   0.9kbits/s speed=0.0278x elapsed=0:02:54.75    \nframe=  246 fps=1.4 q=42.0 size=       1KiB time=00:00:04.90 bitrate=   0.9kbits/s speed=0.028x elapsed=0:02:55.26    \nframe=  246 fps=1.4 q=42.0 size=       1KiB time=00:00:04.90 bitrate=   0.9kbits/s speed=0.0279x elapsed=0:02:55.78    \nframe=  246 fps=1.4 q=42.0 size=       1KiB time=00:00:04.90 bitrate=   0.9kbits/s speed=0.0278x elapsed=0:02:56.30    \nframe=  247 fps=1.4 q=41.0 size=       1KiB time=00:00:04.92 bitrate=   0.9kbits/s speed=0.0278x elapsed=0:02:56.82    \nframe=  247 fps=1.4 q=41.0 size=       1KiB time=00:00:04.92 bitrate=   0.9kbits/s speed=0.0277x elapsed=0:02:57.33    \nframe=  247 fps=1.4 q=41.0 size=       1KiB time=00:00:04.92 bitrate=   0.9kbits/s speed=0.0277x elapsed=0:02:57.85    \nframe=  248 fps=1.4 q=42.0 size=       1KiB time=00:00:04.94 bitrate=   0.9kbits/s speed=0.0277x elapsed=0:02:58.36    \nframe=  250 fps=1.4 q=42.0 size=       1KiB time=00:00:04.98 bitrate=   0.9kbits/s speed=0.0278x elapsed=0:02:58.87    \nframe=  251 fps=1.4 q=42.0 size=       1KiB time=00:00:05.00 bitrate=   0.9kbits/s speed=0.0279x elapsed=0:02:59.40    \nframe=  252 fps=1.4 q=40.0 size=       1KiB time=00:00:05.02 bitrate=   0.9kbits/s speed=0.0279x elapsed=0:02:59.91    \nframe=  253 fps=1.4 q=41.0 size=    1792KiB time=00:00:05.04 bitrate=2912.7kbits/s speed=0.0279x elapsed=0:03:00.42    \nframe=  255 fps=1.4 q=41.0 size=    1792KiB time=00:00:05.08 bitrate=2889.8kbits/s speed=0.0281x elapsed=0:03:00.94    \nframe=  255 fps=1.4 q=41.0 size=    1792KiB time=00:00:05.08 bitrate=2889.8kbits/s speed=0.028x elapsed=0:03:01.45    \nframe=  256 fps=1.4 q=41.0 size=    1792KiB time=00:00:05.10 bitrate=2878.4kbits/s speed=0.028x elapsed=0:03:01.98    \nframe=  257 fps=1.4 q=26.0 size=    1792KiB time=00:00:05.12 bitrate=2867.2kbits/s speed=0.0281x elapsed=0:03:02.49    \nframe=  258 fps=1.4 q=42.0 size=    1792KiB time=00:00:05.14 bitrate=2856.0kbits/s speed=0.0281x elapsed=0:03:03.00    \nframe=  259 fps=1.4 q=42.0 size=    1792KiB time=00:00:05.16 bitrate=2845.0kbits/s speed=0.0281x elapsed=0:03:03.52    \nframe=  260 fps=1.4 q=42.0 size=    1792KiB time=00:00:05.18 bitrate=2834.0kbits/s speed=0.0281x elapsed=0:03:04.03    \nframe=  261 fps=1.4 q=42.0 size=    1792KiB time=00:00:05.20 bitrate=2823.1kbits/s speed=0.0282x elapsed=0:03:04.55    \nframe=  262 fps=1.4 q=42.0 size=    1792KiB time=00:00:05.22 bitrate=2812.3kbits/s speed=0.0282x elapsed=0:03:05.07    \nframe=  262 fps=1.4 q=42.0 size=    1792KiB time=00:00:05.22 bitrate=2812.3kbits/s speed=0.0281x elapsed=0:03:05.59    \nframe=  263 fps=1.4 q=42.0 size=    1792KiB time=00:00:05.24 bitrate=2801.5kbits/s speed=0.0282x elapsed=0:03:06.09    \nframe=  263 fps=1.4 q=42.0 size=    1792KiB time=00:00:05.24 bitrate=2801.5kbits/s speed=0.0281x elapsed=0:03:06.61    \nframe=  263 fps=1.4 q=42.0 size=    1792KiB time=00:00:05.24 bitrate=2801.5kbits/s speed=0.028x elapsed=0:03:07.13    \nframe=  264 fps=1.4 q=42.0 size=    1792KiB time=00:00:05.26 bitrate=2790.9kbits/s speed=0.028x elapsed=0:03:07.64    \nframe=  265 fps=1.4 q=39.0 size=    1792KiB time=00:00:05.28 bitrate=2780.3kbits/s speed=0.0281x elapsed=0:03:08.15    \nframe=  267 fps=1.4 q=43.0 size=    1792KiB time=00:00:05.32 bitrate=2759.4kbits/s speed=0.0282x elapsed=0:03:08.67    \nframe=  267 fps=1.4 q=43.0 size=    1792KiB time=00:00:05.32 bitrate=2759.4kbits/s speed=0.0281x elapsed=0:03:09.21    \nframe=  269 fps=1.4 q=41.0 size=    1792KiB time=00:00:05.34 bitrate=2749.1kbits/s speed=0.0281x elapsed=0:03:09.78    \nframe=  270 fps=1.4 q=44.0 size=    1792KiB time=00:00:05.38 bitrate=2728.6kbits/s speed=0.0283x elapsed=0:03:10.39    \nframe=  270 fps=1.4 q=44.0 size=    1792KiB time=00:00:05.38 bitrate=2728.6kbits/s speed=0.0282x elapsed=0:03:10.91    \nframe=  271 fps=1.4 q=43.0 size=    1792KiB time=00:00:05.40 bitrate=2718.5kbits/s speed=0.0282x elapsed=0:03:11.43    \nframe=  271 fps=1.4 q=43.0 size=    1792KiB time=00:00:05.40 bitrate=2718.5kbits/s speed=0.0281x elapsed=0:03:11.97    \nframe=  271 fps=1.4 q=43.0 size=    1792KiB time=00:00:05.40 bitrate=2718.5kbits/s speed=0.0281x elapsed=0:03:12.49    \nframe=  271 fps=1.4 q=43.0 size=    1792KiB time=00:00:05.40 bitrate=2718.5kbits/s speed=0.028x elapsed=0:03:13.01    \nframe=  272 fps=1.4 q=44.0 size=    1792KiB time=00:00:05.42 bitrate=2708.5kbits/s speed=0.028x elapsed=0:03:13.51    \nframe=  272 fps=1.4 q=44.0 size=    1792KiB time=00:00:05.42 bitrate=2708.5kbits/s speed=0.0279x elapsed=0:03:14.04    \nframe=  273 fps=1.4 q=27.0 size=    1792KiB time=00:00:05.44 bitrate=2698.5kbits/s speed=0.028x elapsed=0:03:14.55    \nframe=  274 fps=1.4 q=44.0 size=    1792KiB time=00:00:05.46 bitrate=2688.7kbits/s speed=0.028x elapsed=0:03:15.06    \nframe=  275 fps=1.4 q=44.0 size=    1792KiB time=00:00:05.48 bitrate=2678.8kbits/s speed=0.028x elapsed=0:03:15.57    \nframe=  275 fps=1.4 q=44.0 size=    1792KiB time=00:00:05.48 bitrate=2678.8kbits/s speed=0.0279x elapsed=0:03:16.10    \nframe=  275 fps=1.4 q=44.0 size=    1792KiB time=00:00:05.48 bitrate=2678.8kbits/s speed=0.0279x elapsed=0:03:16.64    \nframe=  276 fps=1.4 q=44.0 size=    1792KiB time=00:00:05.50 bitrate=2669.1kbits/s speed=0.0279x elapsed=0:03:17.19    \nframe=  277 fps=1.4 q=42.0 size=    1792KiB time=00:00:05.52 bitrate=2659.4kbits/s speed=0.0279x elapsed=0:03:17.75    \nframe=  278 fps=1.4 q=43.0 size=    1792KiB time=00:00:05.52 bitrate=2659.4kbits/s speed=0.0278x elapsed=0:03:18.32    \nframe=  278 fps=1.4 q=43.0 size=    1792KiB time=00:00:05.54 bitrate=2649.8kbits/s speed=0.0279x elapsed=0:03:18.91    \nframe=  278 fps=1.4 q=43.0 size=    1792KiB time=00:00:05.54 bitrate=2649.8kbits/s speed=0.0278x elapsed=0:03:19.47    \nframe=  278 fps=1.4 q=43.0 size=    1792KiB time=00:00:05.54 bitrate=2649.8kbits/s speed=0.0277x elapsed=0:03:20.01    \nframe=  279 fps=1.4 q=42.0 size=    1792KiB time=00:00:05.56 bitrate=2640.3kbits/s speed=0.0277x elapsed=0:03:20.58    \nframe=  279 fps=1.4 q=42.0 size=    1792KiB time=00:00:05.56 bitrate=2640.3kbits/s speed=0.0276x elapsed=0:03:21.15    \nframe=  280 fps=1.4 q=43.0 size=    1792KiB time=00:00:05.58 bitrate=2630.8kbits/s speed=0.0277x elapsed=0:03:21.71    \nframe=  282 fps=1.4 q=44.0 size=    1792KiB time=00:00:05.60 bitrate=2621.4kbits/s speed=0.0277x elapsed=0:03:22.29    \nframe=  283 fps=1.4 q=43.0 size=    1792KiB time=00:00:05.64 bitrate=2602.8kbits/s speed=0.0278x elapsed=0:03:22.85    \nframe=  283 fps=1.4 q=43.0 size=    1792KiB time=00:00:05.64 bitrate=2602.8kbits/s speed=0.0277x elapsed=0:03:23.43    \nframe=  284 fps=1.4 q=44.0 size=    1792KiB time=00:00:05.66 bitrate=2593.7kbits/s speed=0.0277x elapsed=0:03:24.02    \nframe=  285 fps=1.4 q=41.0 size=    1792KiB time=00:00:05.68 bitrate=2584.5kbits/s speed=0.0278x elapsed=0:03:24.58    \nframe=  286 fps=1.4 q=44.0 size=    1792KiB time=00:00:05.70 bitrate=2575.4kbits/s speed=0.0278x elapsed=0:03:25.17    \nframe=  286 fps=1.4 q=44.0 size=    1792KiB time=00:00:05.70 bitrate=2575.4kbits/s speed=0.0277x elapsed=0:03:25.77    \nframe=  287 fps=1.4 q=43.0 size=    1792KiB time=00:00:05.72 bitrate=2566.4kbits/s speed=0.0277x elapsed=0:03:26.36    \nframe=  287 fps=1.4 q=43.0 size=    1792KiB time=00:00:05.72 bitrate=2566.4kbits/s speed=0.0276x elapsed=0:03:26.92    \nframe=  288 fps=1.4 q=44.0 size=    1792KiB time=00:00:05.74 bitrate=2557.5kbits/s speed=0.0277x elapsed=0:03:27.51    \nframe=  290 fps=1.4 q=45.0 size=    1792KiB time=00:00:05.78 bitrate=2539.8kbits/s speed=0.0278x elapsed=0:03:28.11    \nframe=  290 fps=1.4 q=45.0 size=    1792KiB time=00:00:05.78 bitrate=2539.8kbits/s speed=0.0277x elapsed=0:03:28.68    \nframe=  291 fps=1.4 q=44.0 size=    1792KiB time=00:00:05.80 bitrate=2531.0kbits/s speed=0.0277x elapsed=0:03:29.25    \nframe=  291 fps=1.4 q=44.0 size=    1792KiB time=00:00:05.80 bitrate=2531.0kbits/s speed=0.0276x elapsed=0:03:29.81    \nframe=  292 fps=1.4 q=40.0 size=    1792KiB time=00:00:05.80 bitrate=2531.0kbits/s speed=0.0276x elapsed=0:03:30.38    \nframe=  292 fps=1.4 q=40.0 size=    1792KiB time=00:00:05.82 bitrate=2522.3kbits/s speed=0.0276x elapsed=0:03:30.94    \nframe=  293 fps=1.4 q=43.0 size=    1792KiB time=00:00:05.84 bitrate=2513.7kbits/s speed=0.0276x elapsed=0:03:31.53    \nframe=  294 fps=1.4 q=43.0 size=    1792KiB time=00:00:05.86 bitrate=2505.1kbits/s speed=0.0276x elapsed=0:03:32.10    \nframe=  294 fps=1.4 q=43.0 size=    1792KiB time=00:00:05.86 bitrate=2505.1kbits/s speed=0.0276x elapsed=0:03:32.65    \nframe=  294 fps=1.4 q=43.0 size=    1792KiB time=00:00:05.86 bitrate=2505.1kbits/s speed=0.0275x elapsed=0:03:33.23    \nframe=  295 fps=1.4 q=41.0 size=    1792KiB time=00:00:05.86 bitrate=2505.1kbits/s speed=0.0274x elapsed=0:03:33.80    \nframe=  295 fps=1.4 q=41.0 size=    1792KiB time=00:00:05.88 bitrate=2496.6kbits/s speed=0.0274x elapsed=0:03:34.38    \nframe=  295 fps=1.4 q=41.0 size=    1792KiB time=00:00:05.88 bitrate=2496.6kbits/s speed=0.0274x elapsed=0:03:34.97    \nframe=  295 fps=1.4 q=41.0 size=    1792KiB time=00:00:05.88 bitrate=2496.6kbits/s speed=0.0273x elapsed=0:03:35.57    \nframe=  297 fps=1.4 q=40.0 size=    1792KiB time=00:00:05.92 bitrate=2479.7kbits/s speed=0.0274x elapsed=0:03:36.14    \nframe=  298 fps=1.4 q=45.0 size=    1792KiB time=00:00:05.94 bitrate=2471.4kbits/s speed=0.0274x elapsed=0:03:36.71    \nframe=  298 fps=1.4 q=45.0 size=    1792KiB time=00:00:05.94 bitrate=2471.4kbits/s speed=0.0273x elapsed=0:03:37.30    \nframe=  299 fps=1.4 q=44.0 size=    1792KiB time=00:00:05.96 bitrate=2463.1kbits/s speed=0.0274x elapsed=0:03:37.87    \nframe=  299 fps=1.4 q=44.0 size=    1792KiB time=00:00:05.96 bitrate=2463.1kbits/s speed=0.0273x elapsed=0:03:38.44    \nframe=  300 fps=1.4 q=44.0 size=    1792KiB time=00:00:05.98 bitrate=2454.9kbits/s speed=0.0273x elapsed=0:03:39.03    \nframe=  301 fps=1.4 q=42.0 size=    1792KiB time=00:00:06.00 bitrate=2446.7kbits/s speed=0.0273x elapsed=0:03:39.62    \nframe=  303 fps=1.4 q=44.0 size=    1792KiB time=00:00:06.04 bitrate=2430.5kbits/s speed=0.0274x elapsed=0:03:40.20    \nframe=  303 fps=1.4 q=44.0 size=    1792KiB time=00:00:06.04 bitrate=2430.5kbits/s speed=0.0274x elapsed=0:03:40.77    \nframe=  304 fps=1.4 q=45.0 size=    1792KiB time=00:00:06.06 bitrate=2422.5kbits/s speed=0.0274x elapsed=0:03:41.34    \nframe=  305 fps=1.4 q=27.0 size=    1792KiB time=00:00:06.08 bitrate=2414.5kbits/s speed=0.0274x elapsed=0:03:41.96    \nframe=  306 fps=1.4 q=46.0 size=    1792KiB time=00:00:06.10 bitrate=2406.6kbits/s speed=0.0274x elapsed=0:03:42.56    \nframe=  306 fps=1.4 q=46.0 size=    1792KiB time=00:00:06.10 bitrate=2406.6kbits/s speed=0.0273x elapsed=0:03:43.15    \nframe=  306 fps=1.4 q=46.0 size=    1792KiB time=00:00:06.10 bitrate=2406.6kbits/s speed=0.0273x elapsed=0:03:43.72    \nframe=  307 fps=1.4 q=45.0 size=    1792KiB time=00:00:06.12 bitrate=2398.7kbits/s speed=0.0273x elapsed=0:03:44.31    \nframe=  308 fps=1.4 q=46.0 size=    1792KiB time=00:00:06.12 bitrate=2398.7kbits/s speed=0.0272x elapsed=0:03:44.87    \nframe=  308 fps=1.4 q=46.0 size=    1792KiB time=00:00:06.14 bitrate=2390.9kbits/s speed=0.0272x elapsed=0:03:45.46    \nframe=  309 fps=1.4 q=44.0 size=    1792KiB time=00:00:06.16 bitrate=2383.1kbits/s speed=0.0273x elapsed=0:03:46.03    \nframe=  309 fps=1.4 q=44.0 size=    1792KiB time=00:00:06.16 bitrate=2383.1kbits/s speed=0.0272x elapsed=0:03:46.59    \nframe=  309 fps=1.4 q=44.0 size=    1792KiB time=00:00:06.16 bitrate=2383.1kbits/s speed=0.0271x elapsed=0:03:47.16    \nframe=  310 fps=1.4 q=46.0 size=    1792KiB time=00:00:06.18 bitrate=2375.4kbits/s speed=0.0271x elapsed=0:03:47.73    \nframe=  311 fps=1.4 q=45.0 size=    1792KiB time=00:00:06.20 bitrate=2367.8kbits/s speed=0.0272x elapsed=0:03:48.30    \nframe=  311 fps=1.4 q=45.0 size=    1792KiB time=00:00:06.20 bitrate=2367.8kbits/s speed=0.0271x elapsed=0:03:48.88    \nframe=  312 fps=1.4 q=46.0 size=    1792KiB time=00:00:06.20 bitrate=2367.8kbits/s speed=0.027x elapsed=0:03:49.45    \nframe=  312 fps=1.4 q=46.0 size=    1792KiB time=00:00:06.22 bitrate=2360.1kbits/s speed=0.027x elapsed=0:03:50.02    \nframe=  313 fps=1.4 q=41.0 size=    1792KiB time=00:00:06.24 bitrate=2352.6kbits/s speed=0.0271x elapsed=0:03:50.62    \nframe=  314 fps=1.4 q=46.0 size=    1792KiB time=00:00:06.26 bitrate=2345.1kbits/s speed=0.0271x elapsed=0:03:51.19    \nframe=  314 fps=1.4 q=46.0 size=    1792KiB time=00:00:06.26 bitrate=2345.1kbits/s speed=0.027x elapsed=0:03:51.76    \nframe=  315 fps=1.4 q=45.0 size=    1792KiB time=00:00:06.26 bitrate=2345.1kbits/s speed=0.0269x elapsed=0:03:52.31    \nframe=  316 fps=1.4 q=46.0 size=    1792KiB time=00:00:06.30 bitrate=2330.2kbits/s speed=0.0271x elapsed=0:03:52.87    \nframe=  316 fps=1.4 q=46.0 size=    1792KiB time=00:00:06.30 bitrate=2330.2kbits/s speed=0.027x elapsed=0:03:53.44    \nframe=  318 fps=1.4 q=46.0 size=    1792KiB time=00:00:06.34 bitrate=2315.5kbits/s speed=0.0271x elapsed=0:03:54.00    \nframe=  318 fps=1.4 q=46.0 size=    1792KiB time=00:00:06.34 bitrate=2315.5kbits/s speed=0.027x elapsed=0:03:54.57    \nframe=  318 fps=1.4 q=46.0 size=    1792KiB time=00:00:06.34 bitrate=2315.5kbits/s speed=0.027x elapsed=0:03:55.14    \nframe=  318 fps=1.3 q=46.0 size=    1792KiB time=00:00:06.34 bitrate=2315.5kbits/s speed=0.0269x elapsed=0:03:55.71    \nframe=  318 fps=1.3 q=46.0 size=    1792KiB time=00:00:06.34 bitrate=2315.5kbits/s speed=0.0268x elapsed=0:03:56.28    \nframe=  318 fps=1.3 q=46.0 size=    1792KiB time=00:00:06.34 bitrate=2315.5kbits/s speed=0.0268x elapsed=0:03:56.85    \nframe=  319 fps=1.3 q=45.0 size=    1792KiB time=00:00:06.36 bitrate=2308.2kbits/s speed=0.0268x elapsed=0:03:57.45    \nframe=  319 fps=1.3 q=45.0 size=    1792KiB time=00:00:06.36 bitrate=2308.2kbits/s speed=0.0267x elapsed=0:03:58.03    \nframe=  319 fps=1.3 q=45.0 size=    1792KiB time=00:00:06.36 bitrate=2308.2kbits/s speed=0.0267x elapsed=0:03:58.62    \nframe=  319 fps=1.3 q=45.0 size=    1792KiB time=00:00:06.36 bitrate=2308.2kbits/s speed=0.0266x elapsed=0:03:59.21    \nframe=  319 fps=1.3 q=45.0 size=    1792KiB time=00:00:06.36 bitrate=2308.2kbits/s speed=0.0265x elapsed=0:03:59.77    \nframe=  320 fps=1.3 q=46.0 size=    1792KiB time=00:00:06.38 bitrate=2301.0kbits/s speed=0.0265x elapsed=0:04:00.36    \nframe=  320 fps=1.3 q=46.0 size=    1792KiB time=00:00:06.38 bitrate=2301.0kbits/s speed=0.0265x elapsed=0:04:00.94    \nframe=  320 fps=1.3 q=46.0 size=    1792KiB time=00:00:06.38 bitrate=2301.0kbits/s speed=0.0264x elapsed=0:04:01.53    \nframe=  321 fps=1.3 q=34.0 size=    1792KiB time=00:00:06.40 bitrate=2293.8kbits/s speed=0.0264x elapsed=0:04:02.12    \nframe=  322 fps=1.3 q=17.0 size=    1792KiB time=00:00:06.42 bitrate=2286.6kbits/s speed=0.0264x elapsed=0:04:02.86    \nframe=  324 fps=1.3 q=44.0 size=    2304KiB time=00:00:06.46 bitrate=2921.7kbits/s speed=0.0265x elapsed=0:04:03.96    \nframe=  325 fps=1.3 q=45.0 size=    2304KiB time=00:00:06.48 bitrate=2912.7kbits/s speed=0.0264x elapsed=0:04:05.08    \nframe=  327 fps=1.3 q=44.0 size=    2304KiB time=00:00:06.52 bitrate=2894.8kbits/s speed=0.0265x elapsed=0:04:06.29    \nframe=  327 fps=1.3 q=44.0 size=    2304KiB time=00:00:06.52 bitrate=2894.8kbits/s speed=0.0264x elapsed=0:04:06.93    \nframe=  328 fps=1.3 q=43.0 size=    2304KiB time=00:00:06.54 bitrate=2886.0kbits/s speed=0.0264x elapsed=0:04:07.45    \nframe=  328 fps=1.3 q=43.0 size=    2304KiB time=00:00:06.54 bitrate=2886.0kbits/s speed=0.0264x elapsed=0:04:07.97    \nframe=  329 fps=1.3 q=44.0 size=    2304KiB time=00:00:06.56 bitrate=2877.2kbits/s speed=0.0264x elapsed=0:04:08.49    \nframe=  329 fps=1.3 q=44.0 size=    2304KiB time=00:00:06.56 bitrate=2877.2kbits/s speed=0.0263x elapsed=0:04:09.00    \nframe=  331 fps=1.3 q=45.0 size=    2304KiB time=00:00:06.60 bitrate=2859.8kbits/s speed=0.0265x elapsed=0:04:09.51    \nframe=  332 fps=1.3 q=44.0 size=    2304KiB time=00:00:06.62 bitrate=2851.1kbits/s speed=0.0265x elapsed=0:04:10.04    \nframe=  332 fps=1.3 q=44.0 size=    2304KiB time=00:00:06.62 bitrate=2851.1kbits/s speed=0.0264x elapsed=0:04:10.55    \nframe=  333 fps=1.3 q=41.0 size=    2304KiB time=00:00:06.64 bitrate=2842.5kbits/s speed=0.0264x elapsed=0:04:11.07    \nframe=  334 fps=1.3 q=41.0 size=    2304KiB time=00:00:06.66 bitrate=2834.0kbits/s speed=0.0265x elapsed=0:04:11.58    \nframe=  335 fps=1.3 q=44.0 size=    2304KiB time=00:00:06.68 bitrate=2825.5kbits/s speed=0.0265x elapsed=0:04:12.09    \nframe=  336 fps=1.3 q=43.0 size=    2304KiB time=00:00:06.70 bitrate=2817.1kbits/s speed=0.0265x elapsed=0:04:12.61    \nframe=  337 fps=1.3 q=44.0 size=    2304KiB time=00:00:06.72 bitrate=2808.7kbits/s speed=0.0265x elapsed=0:04:13.13    \nframe=  338 fps=1.3 q=28.0 size=    2304KiB time=00:00:06.74 bitrate=2800.4kbits/s speed=0.0266x elapsed=0:04:13.64    \nframe=  340 fps=1.3 q=44.0 size=    2304KiB time=00:00:06.78 bitrate=2783.8kbits/s speed=0.0267x elapsed=0:04:14.16    \nframe=  340 fps=1.3 q=44.0 size=    2304KiB time=00:00:06.78 bitrate=2783.8kbits/s speed=0.0266x elapsed=0:04:14.67    \nframe=  340 fps=1.3 q=44.0 size=    2304KiB time=00:00:06.78 bitrate=2783.8kbits/s speed=0.0266x elapsed=0:04:15.19    \nframe=  340 fps=1.3 q=44.0 size=    2304KiB time=00:00:06.78 bitrate=2783.8kbits/s speed=0.0265x elapsed=0:04:15.71    \nframe=  342 fps=1.3 q=42.0 size=    2304KiB time=00:00:06.82 bitrate=2767.5kbits/s speed=0.0266x elapsed=0:04:16.22    \nframe=  343 fps=1.3 q=42.0 size=    2304KiB time=00:00:06.84 bitrate=2759.4kbits/s speed=0.0266x elapsed=0:04:16.74    \nframe=  343 fps=1.3 q=42.0 size=    2304KiB time=00:00:06.84 bitrate=2759.4kbits/s speed=0.0266x elapsed=0:04:17.25    \nframe=  343 fps=1.3 q=42.0 size=    2304KiB time=00:00:06.84 bitrate=2759.4kbits/s speed=0.0265x elapsed=0:04:17.77    \nframe=  344 fps=1.3 q=39.0 size=    2304KiB time=00:00:06.86 bitrate=2751.4kbits/s speed=0.0266x elapsed=0:04:18.29    \nframe=  344 fps=1.3 q=39.0 size=    2304KiB time=00:00:06.86 bitrate=2751.4kbits/s speed=0.0265x elapsed=0:04:18.79    \nframe=  345 fps=1.3 q=42.0 size=    2304KiB time=00:00:06.88 bitrate=2743.4kbits/s speed=0.0265x elapsed=0:04:19.31    \nframe=  346 fps=1.3 q=37.0 size=    2304KiB time=00:00:06.90 bitrate=2735.4kbits/s speed=0.0266x elapsed=0:04:19.83    \nframe=  347 fps=1.3 q=44.0 size=    2304KiB time=00:00:06.92 bitrate=2727.5kbits/s speed=0.0266x elapsed=0:04:20.35    \nframe=  348 fps=1.3 q=43.0 size=    2304KiB time=00:00:06.94 bitrate=2719.6kbits/s speed=0.0266x elapsed=0:04:20.86    \nframe=  348 fps=1.3 q=43.0 size=    2304KiB time=00:00:06.94 bitrate=2719.6kbits/s speed=0.0266x elapsed=0:04:21.38    \nframe=  349 fps=1.3 q=44.0 size=    2304KiB time=00:00:06.96 bitrate=2711.8kbits/s speed=0.0266x elapsed=0:04:21.89    \nframe=  350 fps=1.3 q=41.0 size=    2304KiB time=00:00:06.98 bitrate=2704.1kbits/s speed=0.0266x elapsed=0:04:22.41    \nframe=  351 fps=1.3 q=44.0 size=    2304KiB time=00:00:07.00 bitrate=2696.3kbits/s speed=0.0266x elapsed=0:04:22.92    \nframe=  352 fps=1.3 q=42.0 size=    2304KiB time=00:00:07.02 bitrate=2688.7kbits/s speed=0.0266x elapsed=0:04:23.43    \nframe=  352 fps=1.3 q=42.0 size=    2304KiB time=00:00:07.02 bitrate=2688.7kbits/s speed=0.0266x elapsed=0:04:23.95    \nframe=  353 fps=1.3 q=44.0 size=    2304KiB time=00:00:07.04 bitrate=2681.0kbits/s speed=0.0266x elapsed=0:04:24.46    \nframe=  354 fps=1.3 q=29.0 size=    2304KiB time=00:00:07.06 bitrate=2673.4kbits/s speed=0.0266x elapsed=0:04:24.99    \nframe=  355 fps=1.3 q=45.0 size=    2304KiB time=00:00:07.08 bitrate=2665.9kbits/s speed=0.0267x elapsed=0:04:25.50    \nframe=  357 fps=1.3 q=45.0 size=    2304KiB time=00:00:07.12 bitrate=2650.9kbits/s speed=0.0268x elapsed=0:04:26.01    \nframe=  358 fps=1.3 q=43.0 size=    2304KiB time=00:00:07.14 bitrate=2643.5kbits/s speed=0.0268x elapsed=0:04:26.54    \nframe=  359 fps=1.3 q=45.0 size=    2304KiB time=00:00:07.16 bitrate=2636.1kbits/s speed=0.0268x elapsed=0:04:27.05    \nframe=  359 fps=1.3 q=45.0 size=    2304KiB time=00:00:07.16 bitrate=2636.1kbits/s speed=0.0268x elapsed=0:04:27.56    \nframe=  359 fps=1.3 q=45.0 size=    2304KiB time=00:00:07.16 bitrate=2636.1kbits/s speed=0.0267x elapsed=0:04:28.07    \nframe=  359 fps=1.3 q=45.0 size=    2304KiB time=00:00:07.16 bitrate=2636.1kbits/s speed=0.0267x elapsed=0:04:28.59    \nframe=  360 fps=1.3 q=44.0 size=    2304KiB time=00:00:07.18 bitrate=2628.7kbits/s speed=0.0267x elapsed=0:04:29.12    \nframe=  360 fps=1.3 q=44.0 size=    2304KiB time=00:00:07.18 bitrate=2628.7kbits/s speed=0.0266x elapsed=0:04:29.62    \nframe=  361 fps=1.3 q=37.0 size=    2304KiB time=00:00:07.20 bitrate=2621.4kbits/s speed=0.0267x elapsed=0:04:30.14    \nframe=  362 fps=1.3 q=37.0 size=    2304KiB time=00:00:07.22 bitrate=2614.2kbits/s speed=0.0267x elapsed=0:04:30.66    \nframe=  363 fps=1.3 q=45.0 size=    2304KiB time=00:00:07.24 bitrate=2607.0kbits/s speed=0.0267x elapsed=0:04:31.18    \nframe=  364 fps=1.3 q=44.0 size=    2304KiB time=00:00:07.26 bitrate=2599.8kbits/s speed=0.0267x elapsed=0:04:31.69    \nframe=  364 fps=1.3 q=44.0 size=    2304KiB time=00:00:07.26 bitrate=2599.8kbits/s speed=0.0267x elapsed=0:04:32.20    \nframe=  365 fps=1.3 q=45.0 size=    2304KiB time=00:00:07.28 bitrate=2592.6kbits/s speed=0.0267x elapsed=0:04:32.72    \nframe=  366 fps=1.3 q=42.0 size=    2304KiB time=00:00:07.30 bitrate=2585.5kbits/s speed=0.0267x elapsed=0:04:33.24    \nframe=  367 fps=1.3 q=44.0 size=    2304KiB time=00:00:07.32 bitrate=2578.5kbits/s speed=0.0267x elapsed=0:04:33.75    \nframe=  368 fps=1.3 q=42.0 size=    2304KiB time=00:00:07.34 bitrate=2571.4kbits/s speed=0.0268x elapsed=0:04:34.26    \nframe=  368 fps=1.3 q=42.0 size=    2304KiB time=00:00:07.34 bitrate=2571.4kbits/s speed=0.0267x elapsed=0:04:34.79    \nframe=  371 fps=1.3 q=45.0 size=    2304KiB time=00:00:07.40 bitrate=2550.6kbits/s speed=0.0269x elapsed=0:04:35.29    \nframe=  372 fps=1.3 q=44.0 size=    2304KiB time=00:00:07.42 bitrate=2543.7kbits/s speed=0.0269x elapsed=0:04:35.81    \nframe=  372 fps=1.3 q=44.0 size=    2304KiB time=00:00:07.42 bitrate=2543.7kbits/s speed=0.0269x elapsed=0:04:36.33    \nframe=  374 fps=1.4 q=42.0 size=    2304KiB time=00:00:07.46 bitrate=2530.1kbits/s speed=0.0269x elapsed=0:04:36.85    \nframe=  375 fps=1.4 q=44.0 size=    2304KiB time=00:00:07.48 bitrate=2523.3kbits/s speed=0.027x elapsed=0:04:37.36    \nframe=  375 fps=1.3 q=44.0 size=    2304KiB time=00:00:07.48 bitrate=2523.3kbits/s speed=0.0269x elapsed=0:04:37.88    \nframe=  376 fps=1.4 q=42.0 size=    2304KiB time=00:00:07.50 bitrate=2516.6kbits/s speed=0.0269x elapsed=0:04:38.39    \nframe=  377 fps=1.4 q=37.0 size=    2304KiB time=00:00:07.54 bitrate=2503.2kbits/s speed=0.027x elapsed=0:04:38.91    \nframe=  378 fps=1.4 q=37.0 size=    2304KiB time=00:00:07.54 bitrate=2503.2kbits/s speed=0.027x elapsed=0:04:39.42    \nframe=  380 fps=1.4 q=43.0 size=    2304KiB time=00:00:07.58 bitrate=2490.0kbits/s speed=0.0271x elapsed=0:04:39.94    \nframe=  380 fps=1.4 q=43.0 size=    2304KiB time=00:00:07.58 bitrate=2490.0kbits/s speed=0.027x elapsed=0:04:40.45    \nframe=  382 fps=1.4 q=41.0 size=    2304KiB time=00:00:07.62 bitrate=2477.0kbits/s speed=0.0271x elapsed=0:04:40.97    \nframe=  383 fps=1.4 q=44.0 size=    2304KiB time=00:00:07.64 bitrate=2470.5kbits/s speed=0.0271x elapsed=0:04:41.49    \nframe=  384 fps=1.4 q=43.0 size=    2304KiB time=00:00:07.66 bitrate=2464.0kbits/s speed=0.0272x elapsed=0:04:42.00    \nframe=  385 fps=1.4 q=44.0 size=    2304KiB time=00:00:07.68 bitrate=2457.6kbits/s speed=0.0272x elapsed=0:04:42.51    \nframe=  388 fps=1.4 q=44.0 size=    2304KiB time=00:00:07.74 bitrate=2438.5kbits/s speed=0.0273x elapsed=0:04:43.03    \nframe=  388 fps=1.4 q=44.0 size=    2304KiB time=00:00:07.74 bitrate=2438.5kbits/s speed=0.0273x elapsed=0:04:43.58    \nframe=  390 fps=1.4 q=42.0 size=    2304KiB time=00:00:07.78 bitrate=2426.0kbits/s speed=0.0274x elapsed=0:04:44.14    \nframe=  391 fps=1.4 q=44.0 size=    2304KiB time=00:00:07.80 bitrate=2419.8kbits/s speed=0.0274x elapsed=0:04:44.65    \nframe=  391 fps=1.4 q=44.0 size=    2304KiB time=00:00:07.80 bitrate=2419.8kbits/s speed=0.0273x elapsed=0:04:45.19    \nframe=  391 fps=1.4 q=44.0 size=    2304KiB time=00:00:07.80 bitrate=2419.8kbits/s speed=0.0273x elapsed=0:04:45.72    \nframe=  392 fps=1.4 q=42.0 size=    2304KiB time=00:00:07.82 bitrate=2413.6kbits/s speed=0.0273x elapsed=0:04:46.24    \nframe=  392 fps=1.4 q=42.0 size=    2304KiB time=00:00:07.82 bitrate=2413.6kbits/s speed=0.0273x elapsed=0:04:46.81    \nframe=  394 fps=1.4 q=38.0 size=    2304KiB time=00:00:07.86 bitrate=2401.3kbits/s speed=0.0274x elapsed=0:04:47.33    \nframe=  395 fps=1.4 q=44.0 size=    2304KiB time=00:00:07.88 bitrate=2395.2kbits/s speed=0.0274x elapsed=0:04:47.89    \nframe=  396 fps=1.4 q=43.0 size=    2304KiB time=00:00:07.90 bitrate=2389.2kbits/s speed=0.0274x elapsed=0:04:48.43    \nframe=  396 fps=1.4 q=43.0 size=    2304KiB time=00:00:07.90 bitrate=2389.2kbits/s speed=0.0273x elapsed=0:04:48.95    \nframe=  398 fps=1.4 q=41.0 size=    2304KiB time=00:00:07.94 bitrate=2377.1kbits/s speed=0.0274x elapsed=0:04:49.47    \nframe=  400 fps=1.4 q=42.0 size=    2304KiB time=00:00:07.98 bitrate=2365.2kbits/s speed=0.0275x elapsed=0:04:50.02    \nframe=  400 fps=1.4 q=42.0 size=    2304KiB time=00:00:07.98 bitrate=2365.2kbits/s speed=0.0275x elapsed=0:04:50.54    \nframe=  402 fps=1.4 q=29.0 size=    2304KiB time=00:00:08.02 bitrate=2353.4kbits/s speed=0.0276x elapsed=0:04:51.05    \nframe=  404 fps=1.4 q=44.0 size=    2304KiB time=00:00:08.06 bitrate=2341.7kbits/s speed=0.0276x elapsed=0:04:51.56    \nframe=  406 fps=1.4 q=42.0 size=    2304KiB time=00:00:08.10 bitrate=2330.2kbits/s speed=0.0277x elapsed=0:04:52.09    \nframe=  406 fps=1.4 q=42.0 size=    2304KiB time=00:00:08.10 bitrate=2330.2kbits/s speed=0.0277x elapsed=0:04:52.60    \nframe=  406 fps=1.4 q=42.0 size=    2304KiB time=00:00:08.10 bitrate=2330.2kbits/s speed=0.0276x elapsed=0:04:53.14    \nframe=  408 fps=1.4 q=41.0 size=    2304KiB time=00:00:08.14 bitrate=2318.7kbits/s speed=0.0277x elapsed=0:04:53.69    \nframe=  408 fps=1.4 q=41.0 size=    2304KiB time=00:00:08.14 bitrate=2318.7kbits/s speed=0.0277x elapsed=0:04:54.22    \nframe=  410 fps=1.4 q=38.0 size=    2304KiB time=00:00:08.18 bitrate=2307.4kbits/s speed=0.0278x elapsed=0:04:54.75    \nframe=  410 fps=1.4 q=38.0 size=    2304KiB time=00:00:08.18 bitrate=2307.4kbits/s speed=0.0277x elapsed=0:04:55.33    \nframe=  410 fps=1.4 q=38.0 size=    2304KiB time=00:00:08.18 bitrate=2307.4kbits/s speed=0.0276x elapsed=0:04:55.92    \nframe=  410 fps=1.4 q=38.0 size=    2304KiB time=00:00:08.18 bitrate=2307.4kbits/s speed=0.0276x elapsed=0:04:56.55    \nframe=  410 fps=1.4 q=38.0 size=    2304KiB time=00:00:08.18 bitrate=2307.4kbits/s speed=0.0275x elapsed=0:04:57.09    \nframe=  412 fps=1.4 q=43.0 size=    2304KiB time=00:00:08.22 bitrate=2296.2kbits/s speed=0.0276x elapsed=0:04:57.61    \nframe=  414 fps=1.4 q=41.0 size=    2304KiB time=00:00:08.26 bitrate=2285.0kbits/s speed=0.0277x elapsed=0:04:58.12    \nframe=  414 fps=1.4 q=41.0 size=    2304KiB time=00:00:08.26 bitrate=2285.0kbits/s speed=0.0277x elapsed=0:04:58.69    \nframe=  416 fps=1.4 q=42.0 size=    2304KiB time=00:00:08.30 bitrate=2274.0kbits/s speed=0.0277x elapsed=0:04:59.24    \nframe=  418 fps=1.4 q=29.0 size=    2304KiB time=00:00:08.34 bitrate=2263.1kbits/s speed=0.0278x elapsed=0:04:59.82    \nframe=  418 fps=1.4 q=29.0 size=    2304KiB time=00:00:08.34 bitrate=2263.1kbits/s speed=0.0278x elapsed=0:05:00.36    \nframe=  418 fps=1.4 q=29.0 size=    2304KiB time=00:00:08.34 bitrate=2263.1kbits/s speed=0.0277x elapsed=0:05:00.94    \nframe=  420 fps=1.4 q=44.0 size=    2304KiB time=00:00:08.38 bitrate=2252.3kbits/s speed=0.0278x elapsed=0:05:01.53    \nframe=  422 fps=1.4 q=42.0 size=    2304KiB time=00:00:08.42 bitrate=2241.6kbits/s speed=0.0279x elapsed=0:05:02.04    \nframe=  422 fps=1.4 q=42.0 size=    2304KiB time=00:00:08.42 bitrate=2241.6kbits/s speed=0.0278x elapsed=0:05:02.58    \nframe=  426 fps=1.4 q=37.0 size=    2304KiB time=00:00:08.50 bitrate=2220.5kbits/s speed=0.028x elapsed=0:05:03.24    \nframe=  426 fps=1.4 q=37.0 size=    2304KiB time=00:00:08.50 bitrate=2220.5kbits/s speed=0.028x elapsed=0:05:03.75    \nframe=  426 fps=1.4 q=37.0 size=    2304KiB time=00:00:08.50 bitrate=2220.5kbits/s speed=0.0279x elapsed=0:05:04.39    \nframe=  426 fps=1.4 q=37.0 size=    2304KiB time=00:00:08.50 bitrate=2220.5kbits/s speed=0.0279x elapsed=0:05:04.98    \nframe=  428 fps=1.4 q=43.0 size=    2304KiB time=00:00:08.54 bitrate=2210.1kbits/s speed=0.0279x elapsed=0:05:05.58    \nframe=  430 fps=1.4 q=41.0 size=    2304KiB time=00:00:08.58 bitrate=2199.8kbits/s speed=0.028x elapsed=0:05:06.20    \nframe=  430 fps=1.4 q=41.0 size=    2304KiB time=00:00:08.58 bitrate=2199.8kbits/s speed=0.028x elapsed=0:05:06.72    \nframe=  430 fps=1.4 q=41.0 size=    2304KiB time=00:00:08.58 bitrate=2199.8kbits/s speed=0.0279x elapsed=0:05:07.34    \nframe=  432 fps=1.4 q=43.0 size=    2304KiB time=00:00:08.62 bitrate=2189.6kbits/s speed=0.028x elapsed=0:05:07.94    \nframe=  434 fps=1.4 q=29.0 size=    2304KiB time=00:00:08.66 bitrate=2179.5kbits/s speed=0.0281x elapsed=0:05:08.51    \nframe=  434 fps=1.4 q=29.0 size=    2304KiB time=00:00:08.66 bitrate=2179.5kbits/s speed=0.028x elapsed=0:05:09.08    \nframe=  436 fps=1.4 q=44.0 size=    2304KiB time=00:00:08.70 bitrate=2169.5kbits/s speed=0.0281x elapsed=0:05:09.60    \nframe=  438 fps=1.4 q=42.0 size=    2304KiB time=00:00:08.74 bitrate=2159.5kbits/s speed=0.0282x elapsed=0:05:10.13    \nframe=  438 fps=1.4 q=42.0 size=    2304KiB time=00:00:08.74 bitrate=2159.5kbits/s speed=0.0281x elapsed=0:05:10.67    \nframe=  442 fps=1.4 q=37.0 size=    2304KiB time=00:00:08.82 bitrate=2140.0kbits/s speed=0.0283x elapsed=0:05:11.23    \nframe=  442 fps=1.4 q=37.0 size=    2304KiB time=00:00:08.82 bitrate=2140.0kbits/s speed=0.0283x elapsed=0:05:11.77    \nframe=  442 fps=1.4 q=37.0 size=    2304KiB time=00:00:08.82 bitrate=2140.0kbits/s speed=0.0282x elapsed=0:05:12.28    \nframe=  442 fps=1.4 q=37.0 size=    2304KiB time=00:00:08.82 bitrate=2140.0kbits/s speed=0.0282x elapsed=0:05:12.82    \nframe=  446 fps=1.4 q=41.0 size=    2304KiB time=00:00:08.90 bitrate=2120.7kbits/s speed=0.0284x elapsed=0:05:13.35    \nframe=  446 fps=1.4 q=41.0 size=    2304KiB time=00:00:08.90 bitrate=2120.7kbits/s speed=0.0284x elapsed=0:05:13.87    \nframe=  450 fps=1.4 q=27.0 size=    2304KiB time=00:00:08.98 bitrate=2101.8kbits/s speed=0.0286x elapsed=0:05:14.45    \nframe=  450 fps=1.4 q=27.0 size=    2304KiB time=00:00:08.98 bitrate=2101.8kbits/s speed=0.0285x elapsed=0:05:15.03    \nframe=  450 fps=1.4 q=27.0 size=    2304KiB time=00:00:08.98 bitrate=2101.8kbits/s speed=0.0285x elapsed=0:05:15.57    \nframe=  450 fps=1.4 q=27.0 size=    2304KiB time=00:00:08.98 bitrate=2101.8kbits/s speed=0.0284x elapsed=0:05:16.12    \nframe=  450 fps=1.4 q=27.0 size=    2304KiB time=00:00:08.98 bitrate=2101.8kbits/s speed=0.0284x elapsed=0:05:16.63    \nframe=  454 fps=1.4 q=42.0 size=    2304KiB time=00:00:09.06 bitrate=2083.3kbits/s speed=0.0286x elapsed=0:05:17.15    \nframe=  454 fps=1.4 q=42.0 size=    2304KiB time=00:00:09.06 bitrate=2083.3kbits/s speed=0.0285x elapsed=0:05:17.68    \nframe=  454 fps=1.4 q=42.0 size=    2304KiB time=00:00:09.06 bitrate=2083.3kbits/s speed=0.0285x elapsed=0:05:18.31    \nframe=  456 fps=1.4 q=43.0 size=    2304KiB time=00:00:09.10 bitrate=2074.1kbits/s speed=0.0285x elapsed=0:05:18.85    \nframe=  458 fps=1.4 q=37.0 size=    2304KiB time=00:00:09.10 bitrate=2074.1kbits/s speed=0.0285x elapsed=0:05:19.38    \nframe=  458 fps=1.4 q=37.0 size=    2304KiB time=00:00:09.14 bitrate=2065.0kbits/s speed=0.0286x elapsed=0:05:19.92    \nframe=  458 fps=1.4 q=37.0 size=    2304KiB time=00:00:09.14 bitrate=2065.0kbits/s speed=0.0285x elapsed=0:05:20.45    \nframe=  458 fps=1.4 q=37.0 size=    2304KiB time=00:00:09.14 bitrate=2065.0kbits/s speed=0.0285x elapsed=0:05:21.06    \nframe=  458 fps=1.4 q=37.0 size=    2304KiB time=00:00:09.14 bitrate=2065.0kbits/s speed=0.0284x elapsed=0:05:21.58    \nframe=  460 fps=1.4 q=43.0 size=    2304KiB time=00:00:09.18 bitrate=2056.0kbits/s speed=0.0285x elapsed=0:05:22.18    \nframe=  462 fps=1.4 q=41.0 size=    2304KiB time=00:00:09.22 bitrate=2047.1kbits/s speed=0.0286x elapsed=0:05:22.72    \nframe=  462 fps=1.4 q=41.0 size=    2304KiB time=00:00:09.22 bitrate=2047.1kbits/s speed=0.0285x elapsed=0:05:23.25    \nframe=  462 fps=1.4 q=41.0 size=    2304KiB time=00:00:09.22 bitrate=2047.1kbits/s speed=0.0285x elapsed=0:05:23.77    \nframe=  462 fps=1.4 q=41.0 size=    2304KiB time=00:00:09.22 bitrate=2047.1kbits/s speed=0.0284x elapsed=0:05:24.29    \nframe=  464 fps=1.4 q=43.0 size=    2304KiB time=00:00:09.26 bitrate=2038.3kbits/s speed=0.0285x elapsed=0:05:24.81    \nframe=  466 fps=1.4 q=29.0 size=    2304KiB time=00:00:09.30 bitrate=2029.5kbits/s speed=0.0286x elapsed=0:05:25.40    \nframe=  468 fps=1.4 q=44.0 size=    2304KiB time=00:00:09.34 bitrate=2020.8kbits/s speed=0.0287x elapsed=0:05:25.93    \nframe=  470 fps=1.4 q=42.0 size=    2304KiB time=00:00:09.38 bitrate=2012.2kbits/s speed=0.0287x elapsed=0:05:26.45    \nframe=  472 fps=1.4 q=42.0 size=    2304KiB time=00:00:09.42 bitrate=2003.6kbits/s speed=0.0288x elapsed=0:05:27.00    \nframe=  474 fps=1.4 q=37.0 size=    2304KiB time=00:00:09.46 bitrate=1995.2kbits/s speed=0.0289x elapsed=0:05:27.52    \nframe=  474 fps=1.4 q=37.0 size=    2304KiB time=00:00:09.46 bitrate=1995.2kbits/s speed=0.0288x elapsed=0:05:28.08    \nframe=  474 fps=1.4 q=37.0 size=    2304KiB time=00:00:09.46 bitrate=1995.2kbits/s speed=0.0288x elapsed=0:05:28.61    \nframe=  474 fps=1.4 q=37.0 size=    2304KiB time=00:00:09.46 bitrate=1995.2kbits/s speed=0.0287x elapsed=0:05:29.18    \nframe=  478 fps=1.4 q=43.0 size=    2304KiB time=00:00:09.54 bitrate=1978.4kbits/s speed=0.0289x elapsed=0:05:29.71    \nframe=  478 fps=1.4 q=43.0 size=    2304KiB time=00:00:09.54 bitrate=1978.4kbits/s speed=0.0289x elapsed=0:05:30.22    \nframe=  478 fps=1.4 q=43.0 size=    2304KiB time=00:00:09.54 bitrate=1978.4kbits/s speed=0.0288x elapsed=0:05:30.77    \nframe=  482 fps=1.5 q=28.0 size=    2304KiB time=00:00:09.62 bitrate=1962.0kbits/s speed=0.029x elapsed=0:05:31.29    \nframe=  482 fps=1.5 q=28.0 size=    2304KiB time=00:00:09.62 bitrate=1962.0kbits/s speed=0.029x elapsed=0:05:31.85    \nframe=  482 fps=1.5 q=28.0 size=    2304KiB time=00:00:09.62 bitrate=1962.0kbits/s speed=0.0289x elapsed=0:05:32.38    \nframe=  484 fps=1.5 q=46.0 size=    2304KiB time=00:00:09.66 bitrate=1953.9kbits/s speed=0.029x elapsed=0:05:32.89    \nframe=  486 fps=1.5 q=47.0 size=    2304KiB time=00:00:09.70 bitrate=1945.8kbits/s speed=0.0291x elapsed=0:05:33.40    \nframe=  486 fps=1.5 q=47.0 size=    2304KiB time=00:00:09.70 bitrate=1945.8kbits/s speed=0.029x elapsed=0:05:33.92    \nframe=  488 fps=1.5 q=46.0 size=    2304KiB time=00:00:09.74 bitrate=1937.8kbits/s speed=0.0291x elapsed=0:05:34.46    \nframe=  490 fps=1.5 q=43.0 size=    2304KiB time=00:00:09.78 bitrate=1929.9kbits/s speed=0.0292x elapsed=0:05:34.98    \nframe=  490 fps=1.5 q=43.0 size=    2304KiB time=00:00:09.78 bitrate=1929.9kbits/s speed=0.0291x elapsed=0:05:35.52    \nframe=  490 fps=1.5 q=43.0 size=    2304KiB time=00:00:09.78 bitrate=1929.9kbits/s speed=0.0291x elapsed=0:05:36.18    \nframe=  490 fps=1.5 q=43.0 size=    2304KiB time=00:00:09.78 bitrate=1929.9kbits/s speed=0.029x elapsed=0:05:36.74    \nframe=  492 fps=1.5 q=46.0 size=    2304KiB time=00:00:09.82 bitrate=1922.0kbits/s speed=0.0291x elapsed=0:05:37.32    \nframe=  494 fps=1.5 q=47.0 size=    2304KiB time=00:00:09.86 bitrate=1914.2kbits/s speed=0.0292x elapsed=0:05:37.89    \nframe=  494 fps=1.5 q=47.0 size=    2304KiB time=00:00:09.86 bitrate=1914.2kbits/s speed=0.0291x elapsed=0:05:38.48    \nframe=  496 fps=1.5 q=46.0 size=    2304KiB time=00:00:09.90 bitrate=1906.5kbits/s speed=0.0292x elapsed=0:05:39.05    \n[out#0/matroska @ 0000028e06719080] video:3552KiB audio:0KiB subtitle:0KiB other streams:0KiB global headers:0KiB muxing overhead: 0.081032%\nframe=  500 fps=1.5 q=41.0 Lsize=    3554KiB time=00:00:09.98 bitrate=2917.7kbits/s speed=0.0294x elapsed=0:05:39.48    \n",
  "seconds": 340.69166684150696,
  "probe_out": {}
}